<svg width="687" height="871" viewBox="0 0 687 871" fill="none" xmlns="http://www.w3.org/2000/svg">
<path d="M534.583 225.289C535.864 225.289 536.719 226.037 538.535 227.534C555.09 242.718 563.955 262.071 568.655 283.67C570.809 294.039 572.272 304.541 573.034 315.105C573.889 327.615 573.568 340.125 573.461 352.636C573.354 361.831 572.5 371.026 572.073 380.222C571.646 387.493 571.325 394.871 570.577 402.248C569.937 407.595 570.898 413.155 569.403 418.287C568.975 419.677 569.723 420.96 570.043 422.243C572.927 422.778 575.704 421.815 578.481 422.778C585.424 425.13 587.774 430.476 589.056 437.533C590.978 448.546 588.521 459.346 586.278 469.931C583.074 483.938 579.549 498.052 576.879 512.273C575.063 522.859 573.675 533.658 571.325 544.03C569.83 550.766 567.907 557.395 563.314 563.276C560.691 566.616 557.171 569.138 553.167 570.547C552.218 570.726 551.354 571.215 550.711 571.937C550.025 572.624 549.609 573.535 549.536 574.503C547.305 589.139 543.949 603.581 539.496 617.7C532.799 639.268 522.703 659.627 509.589 678.005C508.443 679.681 507.476 681.473 506.705 683.352C506.064 684.742 505.53 686.025 506.919 687.629C508.307 689.232 507.667 690.195 507.667 691.585C507.667 697.252 507.773 703.026 507.667 708.693C507.469 717.415 507.969 726.139 509.162 734.782C511.298 752.638 516.211 769.532 527.32 784.074C536.185 795.622 547.507 804.283 560.11 811.554C572.714 818.824 584.783 823.957 597.814 828.982C612.767 834.863 628.148 840.209 643.528 845.128L681.873 857.317C682.514 857.531 683.048 857.317 683.903 857.852" stroke="white" stroke-width="5.7" stroke-linecap="round" stroke-linejoin="round"/>
<path d="M174.313 688.484C176.984 689.126 178.372 691.264 179.974 693.082C190.493 705.625 201.726 717.549 213.619 728.794C223.232 737.776 233.059 746.544 243.419 754.563C258.373 766.325 274.715 775.52 293.406 779.583C302.785 781.492 312.274 782.814 321.818 783.54C331.644 784.181 341.471 784.181 351.297 783.967C368.707 783.646 385.903 781.508 402.352 775.306C414.742 770.816 425.637 763.545 435.997 755.632C459.912 737.248 481.823 716.39 501.365 693.403C502.624 691.811 504.232 690.531 506.064 689.66" stroke="white" stroke-width="5.7" stroke-linecap="round" stroke-linejoin="round"/>
<path d="M112.898 434.86L111.082 435.181C101.469 435.822 96.6628 440.313 95.0606 449.83C93.8857 456.459 94.6334 462.981 95.5947 469.61C98.3717 488.108 103.819 506.072 107.023 524.463C108.839 535.262 110.655 546.061 113.111 556.54C115.034 564.238 117.704 571.616 123.792 577.283C125.571 579.082 127.722 580.469 130.094 581.346C132.871 582.095 133.726 583.912 134.26 586.585C136.141 598.195 138.673 609.69 141.843 621.015C148.572 645.287 158.826 668.062 173.459 688.591C175.382 691.264 177.197 694.044 174.847 697.573C174.524 698.424 174.413 699.342 174.527 700.246C174.527 702.384 174.42 704.523 174.527 706.554C174.885 718.728 174.385 730.912 173.032 743.015C170.896 762.582 165.235 780.866 152.845 796.584C144.727 806.956 134.473 814.441 123.365 820.856C104.994 831.548 85.0205 838.498 65.2607 845.662C45.5009 852.826 25.8479 859.349 5.87452 865.764C4.91324 866.085 3.52471 866.085 2.99066 867.368" stroke="white" stroke-width="5.7" stroke-linecap="round" stroke-linejoin="round"/>
<path d="M149.64 229.887C148.729 229.819 147.815 229.966 146.97 230.314C146.155 230.697 145.456 231.287 144.941 232.025C138.639 240.258 131.59 247.743 126.89 256.832C120.481 268.593 115.568 280.569 113.218 293.507C110.868 306.444 109.907 320.024 109.053 333.389C108.519 344.723 109.48 356.057 109.48 367.391C109.48 376.266 110.334 385.14 110.975 394.015C111.616 402.89 112.15 410.054 112.364 418.073C112.577 423.098 113.752 427.91 112.471 433.042C112.15 434.112 113.752 435.074 115.354 434.539" stroke="white" stroke-width="6.33" stroke-linecap="round" stroke-linejoin="round"/>
<path d="M210.095 106.176C211.483 104.358 213.406 104.037 215.435 103.716L264.781 97.4078L309.534 92.0616C318.827 90.9923 328.013 89.6023 337.305 88.4262L368.28 84.6838L398.4 80.6207L422.753 77.9476L441.124 75.5953C447.853 74.7399 454.689 74.0983 461.525 73.136C468.361 72.1737 476.158 72.7083 483.528 71.8529C485.343 71.6391 486.305 69.7145 488.441 69.7145C490.577 69.7145 496.024 68.8591 499.869 68.4314C503.715 68.0037 503.394 67.0413 502.86 63.8336C501.899 57.739 500.831 51.5374 499.869 45.4427C498.588 37.3165 497.413 29.1902 496.131 21.064C495.277 15.504 494.315 9.83698 493.461 4.38385C493.454 4.03803 493.342 3.7025 493.14 3.42154L492.393 2.67307C492.112 2.47132 491.777 2.35948 491.431 2.35229H490.363C481.712 3.84923 473.06 4.70462 464.302 5.77387C455.543 6.84311 444.756 8.44697 434.929 9.73005C425.103 11.0131 415.276 11.9755 405.45 13.1516C399.255 13.9001 392.953 15.2901 386.758 15.7178C380.563 16.1455 374.048 17.3217 367.746 17.9632C361.444 18.6048 355.249 19.4601 349.054 20.2086L335.703 21.9194L322.993 23.6302L303.874 25.9825L288.92 27.9071C282.725 28.5487 276.423 29.511 270.229 30.0456C264.034 30.5802 257.305 31.6495 250.789 32.398L237.224 34.2157L217.465 36.568L205.075 38.2788L185.635 40.6311C184.293 40.8484 182.936 40.9556 181.576 40.9519C178.052 41.1657 177.731 41.8073 178.159 45.3358C179.547 54.5312 180.722 63.8336 182.004 73.0291C182.751 79.3376 183.713 85.7531 184.247 92.1685C184.781 98.5839 186.383 102.326 186.062 107.459" stroke="white" stroke-width="4.43" stroke-linecap="round" stroke-linejoin="round"/>
<path d="M546.332 221.654C543.448 224.006 540.243 224.006 537.146 225.075C519.095 232.56 502.112 241.114 484.062 248.598C371.484 242.183 259.014 238.975 146.65 230.742" stroke="white" stroke-width="3.8" stroke-linecap="round" stroke-linejoin="round"/>
<path d="M543.127 92.3823C526.358 98.9047 511.405 109.597 493.247 116.013C480.43 121.359 468.681 127.774 456.932 134.19C355.463 128.843 253.993 122.428 151.456 116.013C150.388 116.013 150.388 117.082 149.32 118.472" stroke="white" stroke-width="3.8" stroke-linecap="round" stroke-linejoin="round"/>
<path d="M545.05 84.47C514.609 97.8355 483.634 111.736 453.728 127.774C353.327 121.359 251.857 117.082 151.349 109.063" stroke="white" stroke-width="3.8" stroke-linecap="round" stroke-linejoin="round"/>
<path d="M521.231 153.543C522.406 154.612 524.329 154.505 525.183 155.788C524.863 161.028 524.649 166.374 524.329 171.613C523.581 182.626 523.581 193.639 522.299 204.653C521.979 207.433 522.299 210.213 522.193 212.993C522.086 215.773 521.765 219.836 521.659 223.364C521.552 226.893 520.591 225.824 518.882 225.717H514.823C512.793 225.717 510.657 225.503 509.803 228.069C509.589 228.711 508.521 229.138 507.88 229.459C501.258 232.56 494.956 236.516 488.12 239.189C487.143 239.616 486.089 239.834 485.023 239.831L452.019 238.12L427.346 236.516C415.703 235.768 404.275 235.019 392.632 234.484L378.961 233.843L344.568 231.811L318.613 230.421C306.758 229.887 295.008 229.138 283.153 228.39L269.16 227.748L238.506 225.824L215.222 224.22C205.716 223.685 196.209 222.937 186.81 222.295L156.156 220.264C153.379 220.05 150.709 220.157 148.466 218.232" stroke="white" stroke-width="4.43" stroke-linecap="round" stroke-linejoin="round"/>
<path d="M510.55 226.465C509.849 225.927 509.051 225.528 508.201 225.289C507.33 225.06 506.426 224.987 505.53 225.075C498.695 225.182 491.859 224.541 484.809 224.22C474.876 223.792 464.943 223.471 455.116 222.937L423.714 221.547L393.701 220.264L360.269 218.874C350.656 218.553 341.15 217.911 331.537 217.484L300.883 216.2L272.792 214.81L242.672 213.42L213.94 212.137L184.888 210.747C179.547 210.427 174.207 209.892 168.866 210.854C167.436 210.858 166.008 210.75 164.594 210.533" stroke="white" stroke-width="4.43" stroke-linecap="round" stroke-linejoin="round"/>
<path d="M147.718 228.283C260.402 234.698 371.484 241.114 483.634 246.46C490.043 246.46 495.383 242.183 501.792 240.044L514.609 233.629C524.684 227.454 535.096 221.849 545.798 216.842" stroke="white" stroke-width="3.8" stroke-linecap="round" stroke-linejoin="round"/>
<path d="M542.807 78.1615C515.677 91.4201 488.975 103.182 463.341 116.013C460.136 118.151 456.932 121.359 452.66 121.359L212.338 108.528C211.27 108.528 211.27 107.459 210.095 106.817" stroke="white" stroke-width="3.8" stroke-linecap="round" stroke-linejoin="round"/>
<path d="M148.038 123.818C152.524 121.359 156.797 122.428 161.069 122.428C165.341 122.428 169.614 123.497 173.886 124.567C189.908 125.636 205.929 125.636 221.951 126.705C267.879 130.982 313.807 132.051 359.735 135.259C392.846 138.467 425.957 140.605 459.068 140.605C487.907 127.774 516.745 112.805 545.05 100.081" stroke="white" stroke-width="3.8" stroke-linecap="round" stroke-linejoin="round"/>
<path d="M148.038 131.196C151.883 128.95 156.049 129.485 160.001 130.02C165.555 130.768 171.216 130.554 176.77 130.982L194.073 132.051C202.618 132.586 211.27 132.693 219.814 133.762C224.087 134.297 228.252 134.19 232.525 134.51C242.031 135.152 251.537 135.366 260.936 135.9C270.335 136.435 277.171 137.611 285.289 137.825C293.406 138.039 301.31 138.894 309.321 139.322C319.041 139.964 328.76 140.284 338.373 141.247C345.209 141.995 352.152 141.995 359.094 142.316L395.516 144.347C396.099 144.361 396.673 144.491 397.205 144.73C397.737 144.969 398.216 145.311 398.614 145.738" stroke="white" stroke-width="3.8" stroke-linecap="round" stroke-linejoin="round"/>
<path d="M544.516 123.177C527.426 132.051 511.405 141.674 493.247 149.159L492.179 151.298C490.361 152.226 488.346 152.703 486.305 152.688C484.341 152.768 482.374 152.661 480.43 152.367C472.099 150.977 449.989 152.26 417.84 148.945C408.013 147.876 404.916 147.234 397.118 147.021C384.622 146.7 375.436 148.197 373.62 148.09C305.262 142.744 237.972 142.744 169.614 137.397C168.546 137.397 167.478 140.605 167.478 141.674C167.478 163.059 164.273 185.513 165.341 206.898C165.305 208.881 164.545 210.783 163.205 212.244C157.865 215.452 151.456 213.313 148.252 217.59C145.048 221.867 146.757 227.641 146.97 228.497" stroke="white" stroke-width="4.43" stroke-linecap="round" stroke-linejoin="round"/>
<path d="M545.05 106.389C517.813 121.359 487.907 134.19 459.709 148.945" stroke="white" stroke-width="3.8" stroke-linecap="round" stroke-linejoin="round"/>
<path d="M543.661 116.12C522.086 126.705 500.724 137.397 478.294 147.021C477.047 148.183 475.968 149.515 475.09 150.977" stroke="white" stroke-width="3.8" stroke-linecap="round" stroke-linejoin="round"/>
<path d="M485.13 72.7084C485.771 73.243 486.839 74.3122 487.907 74.3122C506.064 75.3815 524.222 74.3122 542.807 76.7715" stroke="white" stroke-width="3.8" stroke-linecap="round" stroke-linejoin="round"/>
<path d="M119.734 154.826C135.435 156.644 150.388 156.644 166.089 157.285" stroke="white" stroke-width="3.8" stroke-linecap="round" stroke-linejoin="round"/>
<path d="M119.52 177.066C127.104 177.066 134.901 178.456 142.377 178.991C149.854 179.525 157.865 179.525 165.341 180.915" stroke="white" stroke-width="3.8" stroke-linecap="round" stroke-linejoin="round"/>
<path d="M118.345 162.204C134.316 162.001 150.278 163.038 166.089 165.305" stroke="white" stroke-width="3.8" stroke-linecap="round" stroke-linejoin="round"/>
<path d="M118.025 170.437C134.367 169.475 149.32 172.682 165.341 172.896" stroke="white" stroke-width="3.8" stroke-linecap="round" stroke-linejoin="round"/>
<path d="M118.879 184.337L164.701 187.759" stroke="white" stroke-width="3.8" stroke-linecap="round" stroke-linejoin="round"/>
<path d="M122.831 191.929C136.503 191.929 150.388 194.067 164.701 195.03" stroke="white" stroke-width="3.8" stroke-linecap="round" stroke-linejoin="round"/>
<path d="M122.19 198.665C136.076 200.162 150.174 200.91 164.167 202.086" stroke="white" stroke-width="3.8" stroke-linecap="round" stroke-linejoin="round"/>
<path d="M122.19 205.722C134.367 204.76 146.116 207.967 157.865 207.967C160.001 207.967 161.069 209.036 163.632 210.426" stroke="white" stroke-width="3.8" stroke-linecap="round" stroke-linejoin="round"/>
<path d="M543.341 132.372C531.699 135.259 523.154 143.813 511.405 148.09C509.269 149.159 508.201 151.298 507.132 152.26" stroke="white" stroke-width="3.8" stroke-linecap="round" stroke-linejoin="round"/>
<path d="M151.029 142.957C144.086 143.171 136.823 145.63 130.094 147.234C126.569 148.09 117.063 148.197 118.986 153.65" stroke="white" stroke-width="3.8" stroke-linecap="round" stroke-linejoin="round"/>
<path d="M149.747 104.786C152.524 104.465 154.874 103.716 157.865 105.534C160.855 107.352 163.419 106.069 166.409 106.389C174.249 107.246 182.129 107.674 190.014 107.673C196.423 107.459 202.938 106.389 209.454 106.496" stroke="white" stroke-width="3.8" stroke-linecap="round" stroke-linejoin="round"/>
<path d="M184.033 94.4139L158.078 101.685C157.027 102.018 156.073 102.606 155.301 103.396" stroke="white" stroke-width="3.8" stroke-linecap="round" stroke-linejoin="round"/>
<path d="M543.982 138.573C540.671 141.674 535.757 143.278 531.805 145.524C527.854 147.769 523.581 151.832 518.988 153.222C514.395 154.612 510.978 152.687 506.705 152.581C502.433 152.474 496.879 154.077 492.179 151.939" stroke="white" stroke-width="3.8" stroke-linecap="round" stroke-linejoin="round"/>
<path d="M121.122 213.42C130.094 213.313 138.639 213.313 146.65 215.666" stroke="white" stroke-width="3.8" stroke-linecap="round" stroke-linejoin="round"/>
<path d="M542.059 147.448C537.039 151.298 531.699 155.574 525.504 156.537" stroke="white" stroke-width="3.8" stroke-linecap="round" stroke-linejoin="round"/>
<path d="M544.302 195.35C540.884 197.631 537.253 199.877 533.408 202.086C529.562 204.296 525.504 206.542 521.231 208.823" stroke="white" stroke-width="3.8" stroke-linecap="round" stroke-linejoin="round"/>
<path d="M543.768 184.979L533.621 191.608L522.833 198.558" stroke="white" stroke-width="3.8" stroke-linecap="round" stroke-linejoin="round"/>
<path d="M544.302 175.035L534.048 181.45L523.368 188.614" stroke="white" stroke-width="3.8" stroke-linecap="round" stroke-linejoin="round"/>
<path d="M546.225 164.128L535.971 170.544L525.183 177.601" stroke="white" stroke-width="3.8" stroke-linecap="round" stroke-linejoin="round"/>
<path d="M546.652 155.681L536.398 162.204L525.717 169.261" stroke="white" stroke-width="3.8" stroke-linecap="round" stroke-linejoin="round"/>
<path d="M542.273 207.005C538.962 208.395 535.651 209.999 532.126 211.71C528.601 213.42 525.824 214.917 522.94 216.628" stroke="white" stroke-width="3.8" stroke-linecap="round" stroke-linejoin="round"/>
<path d="M147.291 137.825C153.486 134.617 160.108 137.077 166.41 136.863C167.264 136.863 168.225 137.718 169.08 138.146" stroke="white" stroke-width="3.8" stroke-linecap="round" stroke-linejoin="round"/>
<path d="M150.388 138.146C152.417 140.926 151.029 143.92 151.243 147.127C152.311 148.411 153.913 148.624 155.622 148.518C159.358 148.658 163.074 149.123 166.73 149.908" stroke="white" stroke-width="3.8" stroke-linecap="round" stroke-linejoin="round"/>
<path d="M166.73 143.599C162.351 143.278 158.078 142.851 153.699 142.637C153.058 142.53 152.311 142.209 151.777 142.957" stroke="white" stroke-width="4.43" stroke-linecap="round" stroke-linejoin="round"/>
<path d="M150.708 123.497L151.777 129.164" stroke="white" stroke-width="1.9" stroke-linecap="round" stroke-linejoin="round"/>
<path d="M151.777 105.106C151.67 109.597 151.67 109.597 147.397 110.773" stroke="white" stroke-width="3.16" stroke-linecap="round" stroke-linejoin="round"/>
<path d="M227.834 182.011L228.348 170.923L232.469 171.114C233.258 171.151 233.915 171.337 234.44 171.671C234.976 171.997 235.372 172.415 235.628 172.928C235.885 173.43 236 173.971 235.973 174.551C235.941 175.25 235.712 175.875 235.286 176.426C234.87 176.977 234.277 177.35 233.507 177.544L235.956 182.388L233.993 182.297L231.685 177.655L229.797 177.567L229.587 182.092L227.834 182.011ZM232.368 172.641L230.03 172.533L229.865 176.099L232.203 176.207C232.832 176.237 233.315 176.079 233.651 175.734C233.988 175.379 234.167 174.972 234.188 174.513C234.209 174.053 234.069 173.636 233.766 173.262C233.463 172.877 232.997 172.671 232.368 172.641ZM240.89 182.768C240.221 182.736 239.647 182.595 239.168 182.342C238.7 182.08 238.315 181.747 238.013 181.343C237.722 180.929 237.508 180.473 237.371 179.976C237.244 179.48 237.192 178.977 237.216 178.467C237.239 177.968 237.337 177.477 237.509 176.994C237.682 176.512 237.932 176.078 238.26 175.693C238.588 175.308 238.997 175.011 239.488 174.804C239.978 174.586 240.548 174.493 241.197 174.523C241.897 174.555 242.504 174.744 243.018 175.088C243.543 175.423 243.941 175.907 244.212 176.54C244.494 177.164 244.613 177.93 244.571 178.839L244.55 179.304L238.916 179.042C238.928 179.653 239.108 180.187 239.457 180.644C239.806 181.1 240.306 181.344 240.955 181.374C241.325 181.391 241.632 181.345 241.877 181.237C242.123 181.118 242.315 180.982 242.452 180.828C242.589 180.674 242.686 180.538 242.741 180.421C242.807 180.304 242.839 180.245 242.839 180.245L244.428 180.319C244.428 180.319 244.398 180.408 244.34 180.585C244.282 180.753 244.177 180.963 244.026 181.216C243.884 181.47 243.682 181.721 243.42 181.969C243.158 182.217 242.819 182.422 242.401 182.582C241.983 182.733 241.48 182.795 240.89 182.768ZM238.986 177.844L242.957 178.028C242.949 177.327 242.764 176.803 242.399 176.456C242.045 176.109 241.618 175.924 241.119 175.901C240.559 175.875 240.086 176.038 239.699 176.39C239.313 176.733 239.075 177.217 238.986 177.844ZM250.009 183.191C249.34 183.16 248.761 183.018 248.272 182.765C247.784 182.502 247.384 182.168 247.072 181.763C246.761 181.348 246.532 180.892 246.385 180.395C246.248 179.898 246.191 179.395 246.215 178.885C246.238 178.376 246.341 177.88 246.524 177.398C246.716 176.917 246.986 176.489 247.334 176.114C247.682 175.73 248.111 175.435 248.622 175.228C249.132 175.012 249.722 174.919 250.391 174.95C251.051 174.981 251.59 175.106 252.011 175.325C252.441 175.536 252.78 175.792 253.026 176.093C253.272 176.395 253.454 176.694 253.57 176.99C253.687 177.285 253.755 177.534 253.776 177.735C253.807 177.937 253.822 178.037 253.822 178.037L252.204 177.962C252.204 177.962 252.182 177.886 252.139 177.734C252.106 177.582 252.029 177.404 251.909 177.198C251.788 176.992 251.602 176.808 251.349 176.646C251.106 176.485 250.77 176.394 250.34 176.374C249.831 176.35 249.4 176.461 249.049 176.705C248.697 176.938 248.422 177.256 248.224 177.657C248.035 178.059 247.93 178.495 247.908 178.964C247.886 179.434 247.951 179.877 248.101 180.294C248.262 180.712 248.506 181.059 248.834 181.335C249.162 181.6 249.581 181.745 250.09 181.768C250.52 181.788 250.863 181.729 251.12 181.591C251.386 181.453 251.589 181.287 251.728 181.094C251.867 180.9 251.96 180.729 252.007 180.581C252.064 180.433 252.093 180.36 252.093 180.36L253.711 180.435C253.711 180.435 253.686 180.534 253.637 180.732C253.598 180.93 253.507 181.171 253.363 181.455C253.22 181.738 253.012 182.019 252.739 182.297C252.466 182.574 252.105 182.803 251.656 182.982C251.217 183.152 250.669 183.222 250.009 183.191ZM259.258 183.621C258.389 183.58 257.663 183.351 257.082 182.934C256.511 182.517 256.085 181.987 255.804 181.343C255.534 180.7 255.415 180.023 255.448 179.314C255.481 178.605 255.662 177.943 255.99 177.327C256.329 176.712 256.802 176.224 257.41 175.861C258.027 175.5 258.77 175.339 259.64 175.379C260.499 175.419 261.214 175.648 261.785 176.065C262.366 176.482 262.792 177.012 263.063 177.656C263.343 178.299 263.467 178.976 263.434 179.685C263.401 180.394 263.216 181.056 262.877 181.671C262.548 182.287 262.075 182.775 261.457 183.137C260.85 183.499 260.117 183.66 259.258 183.621ZM259.325 182.167C259.814 182.19 260.23 182.084 260.571 181.85C260.922 181.616 261.192 181.298 261.381 180.896C261.58 180.495 261.69 180.065 261.711 179.605C261.733 179.136 261.663 178.697 261.502 178.289C261.351 177.871 261.112 177.53 260.783 177.265C260.465 176.999 260.062 176.856 259.572 176.833C259.083 176.81 258.662 176.916 258.311 177.15C257.96 177.384 257.69 177.701 257.501 178.103C257.313 178.495 257.208 178.925 257.186 179.395C257.165 179.854 257.229 180.293 257.38 180.71C257.531 181.128 257.771 181.469 258.099 181.735C258.427 182 258.835 182.144 259.325 182.167ZM268.791 187.082C268.102 187.05 267.537 186.933 267.096 186.733C266.654 186.532 266.305 186.29 266.048 186.008C265.79 185.736 265.603 185.462 265.485 185.186C265.368 184.92 265.293 184.697 265.261 184.515C265.23 184.333 265.214 184.243 265.214 184.243L266.907 184.321C266.907 184.321 266.924 184.382 266.959 184.504C266.993 184.635 267.071 184.784 267.193 184.95C267.325 185.126 267.523 185.281 267.787 185.413C268.051 185.556 268.403 185.637 268.842 185.657C269.362 185.682 269.781 185.596 270.1 185.401C270.429 185.216 270.667 184.956 270.812 184.623C270.967 184.3 271.054 183.943 271.072 183.554L271.114 182.655L271.039 182.651C270.921 182.816 270.752 182.998 270.533 183.198C270.324 183.389 270.046 183.551 269.699 183.685C269.353 183.819 268.94 183.875 268.46 183.853C267.861 183.825 267.342 183.686 266.903 183.435C266.474 183.185 266.119 182.863 265.837 182.47C265.565 182.067 265.365 181.622 265.238 181.135C265.11 180.649 265.058 180.156 265.081 179.656C265.104 179.157 265.202 178.676 265.373 178.213C265.545 177.741 265.785 177.322 266.092 176.955C266.41 176.58 266.794 176.287 267.244 176.078C267.704 175.869 268.234 175.779 268.833 175.806C269.313 175.829 269.719 175.923 270.052 176.088C270.385 176.244 270.651 176.431 270.851 176.651C271.052 176.86 271.198 177.057 271.289 177.242L271.364 177.245L271.419 176.077L273.127 176.156L272.781 183.618C272.748 184.327 272.574 184.95 272.259 185.486C271.944 186.022 271.494 186.431 270.911 186.714C270.327 186.998 269.62 187.12 268.791 187.082ZM268.915 182.462C269.405 182.485 269.82 182.379 270.161 182.145C270.503 181.9 270.763 181.582 270.941 181.19C271.12 180.798 271.219 180.382 271.239 179.942C271.26 179.503 271.199 179.08 271.058 178.673C270.917 178.266 270.687 177.93 270.369 177.665C270.051 177.4 269.647 177.256 269.158 177.233C268.658 177.21 268.238 177.315 267.897 177.55C267.555 177.784 267.296 178.098 267.117 178.49C266.939 178.882 266.84 179.298 266.819 179.737C266.799 180.177 266.859 180.6 267.001 181.007C267.142 181.414 267.371 181.755 267.689 182.03C268.007 182.295 268.416 182.439 268.915 182.462ZM274.743 184.19L275.111 176.248L276.819 176.327L276.766 177.481L276.856 177.485C276.932 177.349 277.06 177.185 277.239 176.993C277.418 176.791 277.662 176.617 277.969 176.471C278.286 176.325 278.679 176.264 279.149 176.285C279.738 176.313 280.226 176.471 280.613 176.759C281 177.047 281.283 177.421 281.462 177.88C281.651 178.339 281.733 178.838 281.708 179.378L281.471 184.502L279.763 184.423L279.992 179.478C280.014 178.999 279.898 178.588 279.644 178.246C279.399 177.904 279.017 177.721 278.498 177.697C278.088 177.678 277.749 177.767 277.479 177.965C277.22 178.153 277.023 178.409 276.888 178.733C276.753 179.047 276.677 179.389 276.66 179.759L276.451 184.269L274.743 184.19ZM284.945 175.338C284.635 175.324 284.385 175.207 284.195 174.988C284.005 174.769 283.916 174.52 283.929 174.24C283.943 173.95 284.054 173.71 284.263 173.52C284.473 173.319 284.732 173.226 285.042 173.241C285.351 173.255 285.601 173.372 285.791 173.591C285.992 173.8 286.085 174.05 286.072 174.34C286.059 174.629 285.942 174.874 285.723 175.074C285.514 175.265 285.254 175.353 284.945 175.338ZM283.674 184.604L284.042 176.663L285.75 176.742L285.382 184.684L283.674 184.604ZM287.231 184.77L287.286 183.586L291.971 178.413L287.745 178.216L287.809 176.838L294.102 177.13L294.047 178.314L289.363 183.487L293.798 183.693L293.734 185.072L287.231 184.77ZM298.792 185.457C298.123 185.426 297.549 185.284 297.07 185.031C296.601 184.769 296.216 184.436 295.915 184.032C295.624 183.618 295.409 183.162 295.272 182.665C295.145 182.169 295.093 181.666 295.117 181.156C295.14 180.657 295.238 180.166 295.411 179.684C295.583 179.201 295.833 178.767 296.162 178.382C296.49 177.997 296.899 177.7 297.389 177.493C297.88 177.275 298.45 177.182 299.099 177.212C299.798 177.244 300.405 177.433 300.92 177.777C301.445 178.112 301.843 178.596 302.114 179.229C302.395 179.853 302.515 180.619 302.473 181.528L302.451 181.993L296.817 181.731C296.829 182.342 297.009 182.876 297.359 183.333C297.708 183.79 298.207 184.033 298.856 184.063C299.226 184.08 299.534 184.034 299.779 183.926C300.025 183.807 300.216 183.671 300.353 183.517C300.491 183.363 300.587 183.227 300.643 183.11C300.708 182.993 300.741 182.934 300.741 182.934L302.329 183.008C302.329 183.008 302.3 183.097 302.242 183.274C302.184 183.442 302.079 183.652 301.927 183.905C301.785 184.159 301.583 184.41 301.322 184.658C301.06 184.906 300.72 185.111 300.302 185.271C299.885 185.422 299.381 185.484 298.792 185.457ZM296.888 180.533L300.858 180.717C300.851 180.016 300.665 179.492 300.301 179.145C299.946 178.798 299.519 178.613 299.02 178.59C298.461 178.564 297.988 178.727 297.601 179.079C297.215 179.422 296.977 179.906 296.888 180.533ZM307.491 185.861C306.892 185.833 306.373 185.694 305.934 185.443C305.506 185.183 305.151 184.851 304.869 184.447C304.588 184.034 304.384 183.579 304.256 183.083C304.139 182.587 304.092 182.084 304.116 181.574C304.14 181.065 304.233 180.569 304.395 180.086C304.568 179.603 304.813 179.174 305.131 178.799C305.449 178.413 305.833 178.115 306.283 177.906C306.744 177.687 307.274 177.592 307.873 177.619C308.373 177.643 308.784 177.742 309.106 177.917C309.438 178.093 309.699 178.29 309.889 178.509C310.079 178.728 310.216 178.915 310.299 179.069L310.389 179.073L310.603 174.443L312.311 174.522L311.784 185.91L310.075 185.83L310.13 184.647L310.04 184.643C309.944 184.788 309.79 184.961 309.581 185.162C309.371 185.362 309.093 185.535 308.746 185.679C308.409 185.823 307.991 185.884 307.491 185.861ZM307.932 184.455C308.421 184.477 308.832 184.366 309.164 184.121C309.506 183.867 309.766 183.539 309.945 183.137C310.134 182.735 310.239 182.309 310.259 181.86C310.28 181.41 310.215 180.977 310.064 180.559C309.924 180.142 309.694 179.796 309.377 179.521C309.07 179.237 308.671 179.083 308.182 179.06C307.692 179.038 307.277 179.153 306.934 179.408C306.593 179.652 306.328 179.975 306.139 180.377C305.96 180.779 305.86 181.205 305.839 181.654C305.818 182.104 305.878 182.537 306.019 182.954C306.17 183.372 306.404 183.723 306.721 184.008C307.039 184.283 307.442 184.432 307.932 184.455ZM314.034 187.966L315.258 186.176C314.98 186.143 314.75 186.028 314.569 185.829C314.398 185.621 314.32 185.372 314.333 185.082C314.348 184.763 314.465 184.513 314.683 184.333C314.912 184.143 315.177 184.055 315.476 184.069C315.786 184.084 316.041 184.195 316.241 184.405C316.452 184.605 316.55 184.875 316.534 185.214C316.52 185.524 316.389 185.868 316.141 186.247C315.903 186.627 315.508 187.164 314.955 187.859L314.843 188.004L314.034 187.966ZM322.273 186.397L322.787 175.309L326.908 175.5C327.697 175.537 328.354 175.723 328.879 176.057C329.415 176.382 329.811 176.801 330.067 177.314C330.324 177.816 330.439 178.357 330.413 178.937C330.38 179.636 330.151 180.261 329.725 180.812C329.309 181.363 328.716 181.736 327.946 181.93L330.395 186.774L328.432 186.683L326.124 182.041L324.236 181.953L324.027 186.478L322.273 186.397ZM326.807 177.027L324.47 176.919L324.304 180.485L326.642 180.593C327.271 180.623 327.754 180.465 328.09 180.12C328.427 179.765 328.606 179.358 328.627 178.899C328.649 178.439 328.508 178.022 328.205 177.648C327.902 177.263 327.436 177.056 326.807 177.027ZM335.33 187.153C334.66 187.122 334.086 186.981 333.607 186.728C333.139 186.466 332.754 186.133 332.453 185.728C332.161 185.315 331.947 184.859 331.81 184.362C331.683 183.866 331.631 183.363 331.655 182.853C331.678 182.354 331.776 181.863 331.948 181.38C332.121 180.898 332.371 180.464 332.699 180.079C333.028 179.694 333.437 179.397 333.927 179.19C334.417 178.972 334.987 178.879 335.637 178.909C336.336 178.941 336.943 179.13 337.457 179.474C337.983 179.809 338.381 180.293 338.652 180.926C338.933 181.55 339.053 182.316 339.01 183.225L338.989 183.69L333.355 183.428C333.367 184.039 333.547 184.573 333.896 185.03C334.246 185.486 334.745 185.73 335.394 185.76C335.764 185.777 336.071 185.731 336.317 185.623C336.562 185.504 336.754 185.368 336.891 185.214C337.028 185.06 337.125 184.924 337.18 184.807C337.246 184.69 337.279 184.631 337.279 184.631L338.867 184.705C338.867 184.705 338.838 184.794 338.779 184.971C338.722 185.139 338.617 185.349 338.465 185.602C338.323 185.856 338.121 186.107 337.859 186.355C337.598 186.603 337.258 186.808 336.84 186.968C336.422 187.119 335.919 187.181 335.33 187.153ZM333.426 182.23L337.396 182.414C337.389 181.713 337.203 181.189 336.838 180.842C336.484 180.495 336.057 180.31 335.558 180.287C334.998 180.261 334.525 180.424 334.139 180.776C333.752 181.119 333.515 181.603 333.426 182.23ZM343.728 187.544C343.098 187.514 342.583 187.405 342.181 187.216C341.79 187.018 341.48 186.788 341.252 186.528C341.024 186.257 340.857 185.989 340.749 185.723C340.651 185.459 340.591 185.241 340.569 185.069C340.547 184.888 340.536 184.798 340.536 184.798L342.2 184.875C342.2 184.875 342.212 184.94 342.235 185.072C342.27 185.193 342.338 185.337 342.441 185.502C342.543 185.667 342.706 185.819 342.93 185.96C343.154 186.09 343.456 186.164 343.836 186.182C344.295 186.203 344.64 186.114 344.869 185.915C345.109 185.716 345.235 185.481 345.247 185.211C345.259 184.952 345.174 184.743 344.991 184.584C344.808 184.425 344.544 184.298 344.198 184.202L343.13 183.912C342.715 183.793 342.327 183.639 341.965 183.452C341.614 183.256 341.33 183.007 341.114 182.707C340.908 182.397 340.816 182.007 340.838 181.538C340.869 180.849 341.156 180.291 341.696 179.866C342.236 179.441 342.946 179.248 343.825 179.289C344.394 179.316 344.86 179.417 345.222 179.594C345.594 179.772 345.885 179.985 346.093 180.235C346.303 180.475 346.457 180.718 346.555 180.963C346.655 181.197 346.715 181.396 346.738 181.557C346.771 181.708 346.788 181.784 346.788 181.784L345.184 181.71C345.184 181.71 345.172 181.659 345.146 181.558C345.121 181.457 345.061 181.339 344.967 181.204C344.874 181.06 344.73 180.933 344.535 180.824C344.35 180.705 344.093 180.638 343.763 180.623C343.314 180.602 342.984 180.687 342.775 180.877C342.566 181.068 342.456 181.278 342.446 181.508C342.435 181.747 342.521 181.941 342.704 182.09C342.898 182.229 343.153 182.341 343.469 182.426L344.522 182.715C345.224 182.908 345.796 183.2 346.238 183.591C346.681 183.972 346.887 184.507 346.855 185.196C346.833 185.656 346.694 186.07 346.437 186.438C346.19 186.797 345.836 187.081 345.376 187.29C344.916 187.489 344.367 187.573 343.728 187.544ZM348.447 190.556L348.951 179.677L350.659 179.757L350.604 180.94L350.694 180.945C350.801 180.799 350.954 180.626 351.154 180.425C351.363 180.225 351.637 180.052 351.974 179.908C352.321 179.764 352.749 179.704 353.258 179.727C353.848 179.755 354.362 179.899 354.8 180.159C355.239 180.41 355.594 180.742 355.865 181.155C356.147 181.558 356.346 182.008 356.463 182.504C356.59 183 356.642 183.503 356.619 184.013C356.595 184.522 356.497 185.018 356.324 185.501C356.162 185.984 355.921 186.418 355.603 186.804C355.296 187.18 354.911 187.477 354.451 187.696C353.991 187.905 353.466 187.996 352.876 187.968C352.367 187.945 351.946 187.845 351.614 187.67C351.292 187.494 351.036 187.297 350.845 187.078C350.665 186.86 350.529 186.673 350.436 186.519L350.346 186.514L350.155 190.635L348.447 190.556ZM350.475 183.727C350.454 184.177 350.514 184.61 350.655 185.027C350.806 185.445 351.035 185.796 351.342 186.08C351.66 186.355 352.063 186.504 352.553 186.527C353.052 186.55 353.468 186.439 353.8 186.194C354.142 185.94 354.402 185.612 354.581 185.21C354.77 184.808 354.875 184.382 354.895 183.933C354.916 183.483 354.851 183.05 354.7 182.632C354.56 182.215 354.33 181.869 354.013 181.594C353.706 181.31 353.302 181.156 352.803 181.133C352.313 181.11 351.898 181.226 351.555 181.48C351.224 181.725 350.963 182.048 350.775 182.45C350.596 182.852 350.496 183.278 350.475 183.727ZM361.932 188.389C361.263 188.358 360.689 188.216 360.21 187.964C359.741 187.702 359.356 187.368 359.055 186.964C358.764 186.55 358.549 186.095 358.412 185.598C358.285 185.101 358.233 184.598 358.257 184.089C358.28 183.589 358.378 183.098 358.55 182.616C358.723 182.133 358.973 181.699 359.302 181.314C359.63 180.929 360.039 180.633 360.529 180.425C361.02 180.208 361.59 180.114 362.239 180.144C362.938 180.177 363.545 180.365 364.06 180.709C364.585 181.044 364.983 181.528 365.254 182.161C365.535 182.785 365.655 183.551 365.613 184.46L365.591 184.925L359.957 184.663C359.969 185.275 360.149 185.808 360.499 186.265C360.848 186.722 361.347 186.965 361.996 186.995C362.366 187.013 362.673 186.967 362.919 186.858C363.165 186.739 363.356 186.603 363.493 186.449C363.631 186.296 363.727 186.16 363.782 186.042C363.848 185.925 363.881 185.867 363.881 185.867L365.469 185.94C365.469 185.94 365.44 186.029 365.382 186.207C365.324 186.374 365.219 186.585 365.067 186.838C364.925 187.091 364.723 187.342 364.462 187.59C364.2 187.839 363.86 188.043 363.442 188.204C363.025 188.355 362.521 188.416 361.932 188.389ZM360.028 183.465L363.998 183.65C363.991 182.949 363.805 182.424 363.441 182.077C363.086 181.73 362.659 181.545 362.16 181.522C361.601 181.496 361.128 181.659 360.741 182.012C360.355 182.354 360.117 182.839 360.028 183.465ZM371.051 188.812C370.382 188.781 369.802 188.639 369.314 188.386C368.825 188.123 368.425 187.79 368.114 187.385C367.803 186.97 367.573 186.514 367.426 186.016C367.289 185.519 367.232 185.016 367.256 184.507C367.28 183.997 367.383 183.502 367.565 183.02C367.758 182.538 368.028 182.11 368.376 181.736C368.724 181.351 369.153 181.056 369.663 180.849C370.174 180.633 370.763 180.54 371.433 180.571C372.092 180.602 372.632 180.727 373.052 180.947C373.483 181.157 373.821 181.413 374.068 181.715C374.314 182.017 374.495 182.315 374.612 182.611C374.728 182.907 374.797 183.155 374.817 183.356C374.848 183.558 374.863 183.659 374.863 183.659L373.245 183.584C373.245 183.584 373.224 183.508 373.181 183.355C373.148 183.204 373.071 183.025 372.95 182.819C372.83 182.613 372.643 182.429 372.39 182.268C372.147 182.106 371.811 182.015 371.382 181.995C370.872 181.972 370.442 182.082 370.09 182.326C369.739 182.56 369.464 182.877 369.265 183.279C369.076 183.68 368.971 184.116 368.949 184.585C368.927 185.055 368.992 185.498 369.143 185.916C369.304 186.334 369.548 186.68 369.875 186.956C370.204 187.221 370.622 187.366 371.132 187.39C371.561 187.41 371.904 187.35 372.161 187.212C372.428 187.074 372.631 186.909 372.77 186.715C372.909 186.521 373.002 186.35 373.049 186.202C373.106 186.055 373.134 185.981 373.134 185.981L374.752 186.056C374.752 186.056 374.728 186.155 374.679 186.353C374.639 186.551 374.548 186.793 374.405 187.076C374.261 187.36 374.053 187.64 373.78 187.918C373.507 188.196 373.146 188.424 372.697 188.604C372.259 188.773 371.71 188.843 371.051 188.812ZM379.939 189.225C379.309 189.196 378.81 189.058 378.441 188.81C378.072 188.563 377.812 188.245 377.66 187.858C377.518 187.461 377.457 187.038 377.478 186.588L377.673 182.393L376.279 182.328L376.343 180.949L377.736 181.014L377.828 179.036L379.536 179.116L379.445 181.094L381.303 181.18L381.239 182.558L379.381 182.472L379.188 186.638C379.153 187.387 379.55 187.781 380.379 187.819C380.589 187.829 380.784 187.823 380.966 187.801C381.147 187.78 381.237 187.769 381.237 187.769L381.173 189.162C381.173 189.162 381.047 189.177 380.796 189.205C380.554 189.234 380.268 189.241 379.939 189.225ZM386.412 189.526C385.743 189.495 385.169 189.353 384.69 189.101C384.222 188.839 383.837 188.505 383.535 188.101C383.244 187.687 383.03 187.231 382.893 186.735C382.766 186.238 382.714 185.735 382.737 185.226C382.761 184.726 382.858 184.235 383.031 183.753C383.203 183.27 383.454 182.836 383.782 182.451C384.11 182.066 384.519 181.77 385.009 181.562C385.5 181.345 386.07 181.251 386.719 181.281C387.419 181.314 388.025 181.502 388.54 181.846C389.065 182.181 389.463 182.665 389.734 183.298C390.016 183.922 390.135 184.688 390.093 185.597L390.072 186.062L384.438 185.8C384.449 186.411 384.63 186.945 384.979 187.402C385.328 187.859 385.828 188.102 386.477 188.132C386.846 188.15 387.154 188.104 387.399 187.995C387.645 187.876 387.836 187.74 387.974 187.586C388.111 187.432 388.207 187.297 388.263 187.179C388.328 187.062 388.361 187.004 388.361 187.004L389.949 187.077C389.949 187.077 389.92 187.166 389.862 187.344C389.804 187.511 389.699 187.721 389.547 187.975C389.406 188.228 389.204 188.479 388.942 188.727C388.68 188.975 388.34 189.18 387.922 189.341C387.505 189.492 387.002 189.553 386.412 189.526ZM384.508 184.602L388.479 184.787C388.471 184.086 388.285 183.561 387.921 183.214C387.567 182.867 387.14 182.682 386.64 182.659C386.081 182.633 385.608 182.796 385.221 183.149C384.835 183.491 384.597 183.976 384.508 184.602ZM395.112 189.93C394.512 189.902 393.993 189.763 393.554 189.512C393.126 189.252 392.771 188.92 392.489 188.517C392.208 188.103 392.004 187.648 391.877 187.152C391.76 186.656 391.713 186.153 391.736 185.644C391.76 185.134 391.853 184.638 392.016 184.155C392.188 183.673 392.433 183.243 392.751 182.868C393.069 182.482 393.453 182.185 393.904 181.975C394.364 181.756 394.894 181.661 395.494 181.689C395.993 181.712 396.404 181.811 396.726 181.986C397.058 182.162 397.32 182.359 397.51 182.578C397.7 182.797 397.836 182.984 397.919 183.138L398.009 183.142L398.224 178.512L399.932 178.591L399.404 189.979L397.696 189.9L397.751 188.716L397.661 188.712C397.564 188.857 397.411 189.031 397.201 189.231C396.992 189.432 396.714 189.604 396.366 189.748C396.029 189.892 395.611 189.953 395.112 189.93ZM395.552 188.524C396.042 188.547 396.452 188.435 396.784 188.191C397.126 187.936 397.387 187.608 397.565 187.206C397.754 186.804 397.859 186.379 397.88 185.929C397.901 185.479 397.836 185.046 397.685 184.629C397.544 184.212 397.315 183.866 396.997 183.591C396.69 183.306 396.292 183.152 395.802 183.13C395.313 183.107 394.897 183.223 394.555 183.477C394.213 183.722 393.948 184.045 393.759 184.446C393.58 184.848 393.48 185.274 393.46 185.724C393.439 186.173 393.499 186.606 393.64 187.023C393.791 187.441 394.024 187.792 394.342 188.077C394.659 188.352 395.063 188.501 395.552 188.524ZM401.655 192.036L402.879 190.246C402.6 190.213 402.37 190.097 402.189 189.898C402.019 189.69 401.94 189.441 401.953 189.151C401.968 188.832 402.085 188.582 402.304 188.402C402.533 188.212 402.797 188.124 403.097 188.138C403.406 188.153 403.661 188.265 403.862 188.474C404.073 188.674 404.17 188.944 404.155 189.284C404.14 189.593 404.009 189.938 403.761 190.317C403.524 190.696 403.128 191.233 402.576 191.928L402.464 192.073L401.655 192.036ZM409.894 190.466L410.408 179.378L417.645 179.714L417.574 181.243L412.09 180.988L411.944 184.15L416.738 184.372L416.668 185.886L411.873 185.663L411.718 189.019L417.277 189.277L417.206 190.806L409.894 190.466ZM424.865 194.09L425.055 189.984L424.965 189.98C424.869 190.126 424.715 190.299 424.506 190.499C424.296 190.7 424.018 190.872 423.671 191.016C423.334 191.16 422.916 191.221 422.416 191.198C421.817 191.17 421.298 191.031 420.859 190.78C420.43 190.52 420.075 190.188 419.794 189.785C419.513 189.371 419.309 188.916 419.181 188.42C419.064 187.924 419.017 187.421 419.041 186.912C419.065 186.402 419.158 185.906 419.32 185.423C419.493 184.941 419.738 184.512 420.056 184.136C420.374 183.75 420.758 183.453 421.208 183.243C421.669 183.024 422.199 182.929 422.798 182.957C423.298 182.98 423.708 183.079 424.031 183.254C424.363 183.43 424.624 183.627 424.814 183.846C425.004 184.065 425.141 184.252 425.224 184.406L425.314 184.41L425.368 183.226L427.077 183.306L426.573 194.169L424.865 194.09ZM422.857 189.792C423.346 189.815 423.757 189.704 424.089 189.459C424.431 189.204 424.691 188.876 424.87 188.474C425.059 188.072 425.164 187.647 425.184 187.197C425.205 186.748 425.14 186.314 424.989 185.897C424.849 185.48 424.619 185.134 424.302 184.859C423.995 184.574 423.596 184.42 423.107 184.398C422.617 184.375 422.202 184.491 421.859 184.745C421.518 184.99 421.252 185.313 421.064 185.714C420.885 186.116 420.785 186.542 420.764 186.992C420.743 187.441 420.803 187.875 420.944 188.292C421.095 188.709 421.329 189.06 421.646 189.345C421.964 189.62 422.367 189.769 422.857 189.792ZM431.38 191.614C430.581 191.577 429.968 191.298 429.542 190.778C429.115 190.258 428.921 189.583 428.96 188.754L429.208 183.405L430.916 183.484L430.678 188.623C430.655 189.103 430.763 189.483 431 189.765C431.248 190.036 431.591 190.183 432.031 190.203C432.461 190.223 432.81 190.129 433.08 189.921C433.35 189.714 433.548 189.442 433.673 189.108C433.81 188.764 433.886 188.407 433.903 188.037L434.107 183.632L435.816 183.712L435.448 191.653L433.739 191.574L433.792 190.435L433.702 190.431C433.615 190.577 433.477 190.751 433.288 190.952C433.109 191.144 432.861 191.308 432.544 191.443C432.238 191.579 431.849 191.636 431.38 191.614ZM441.235 183.813C441.735 183.836 442.146 183.935 442.468 184.111C442.8 184.286 443.061 184.483 443.251 184.703C443.441 184.922 443.578 185.108 443.661 185.262L443.751 185.266L443.806 184.083L445.514 184.162L445.146 192.103L443.438 192.024L443.492 190.84L443.403 190.836C443.306 190.982 443.153 191.155 442.943 191.355C442.733 191.556 442.455 191.728 442.108 191.872C441.771 192.017 441.353 192.077 440.853 192.054C440.254 192.026 439.735 191.887 439.296 191.637C438.868 191.376 438.513 191.045 438.231 190.641C437.95 190.228 437.746 189.773 437.619 189.276C437.501 188.78 437.455 188.277 437.478 187.768C437.502 187.259 437.595 186.762 437.757 186.279C437.93 185.797 438.175 185.368 438.493 184.992C438.811 184.606 439.195 184.309 439.645 184.1C440.106 183.881 440.636 183.785 441.235 183.813ZM441.544 185.254C441.054 185.231 440.639 185.347 440.297 185.601C439.955 185.846 439.69 186.169 439.501 186.571C439.322 186.973 439.222 187.399 439.201 187.848C439.181 188.298 439.241 188.731 439.381 189.148C439.532 189.565 439.766 189.916 440.083 190.201C440.401 190.477 440.804 190.625 441.294 190.648C441.783 190.671 442.194 190.56 442.526 190.315C442.868 190.061 443.128 189.732 443.307 189.33C443.496 188.928 443.601 188.503 443.622 188.053C443.642 187.604 443.577 187.17 443.427 186.753C443.286 186.336 443.057 185.99 442.739 185.715C442.432 185.43 442.033 185.277 441.544 185.254ZM447.295 192.203L447.838 180.816L449.531 180.895L449.003 192.283L447.295 192.203Z" fill="white"/>
<path d="M215.432 75.154L214.138 64.1297L218.235 63.6478C219.02 63.5555 219.698 63.6317 220.271 63.8765C220.852 64.1102 221.311 64.459 221.647 64.9228C221.982 65.3768 222.184 65.8918 222.251 66.4678C222.333 67.1631 222.208 67.8171 221.877 68.4299C221.557 69.0416 221.032 69.5061 220.304 69.8233L223.507 74.2041L221.555 74.4337L218.524 70.229L216.647 70.4499L217.175 74.949L215.432 75.154ZM218.384 65.1708L216.06 65.4442L216.476 68.9899L218.8 68.7165C219.426 68.6429 219.876 68.4086 220.152 68.0137C220.427 67.6088 220.537 67.1779 220.484 66.7211C220.43 66.2642 220.223 65.8757 219.864 65.5556C219.503 65.2255 219.009 65.0972 218.384 65.1708ZM225.424 64.5993C225.116 64.6355 224.851 64.561 224.628 64.3758C224.405 64.1906 224.277 63.959 224.244 63.6809C224.21 63.3929 224.281 63.1379 224.456 62.9158C224.63 62.6839 224.871 62.5498 225.179 62.5136C225.487 62.4774 225.753 62.5519 225.976 62.7371C226.208 62.9112 226.341 63.1422 226.374 63.4303C226.408 63.7183 226.333 63.9788 226.149 64.212C225.974 64.434 225.732 64.5631 225.424 64.5993ZM225.676 73.9489L224.749 66.0531L226.447 65.8533L227.374 73.7491L225.676 73.9489ZM233.812 76.1785C233.127 76.2591 232.55 76.2364 232.083 76.1102C231.615 75.984 231.231 75.8026 230.931 75.566C230.633 75.3393 230.403 75.0995 230.243 74.8465C230.083 74.6034 229.973 74.3949 229.912 74.2208C229.852 74.0467 229.821 73.9596 229.821 73.9596L231.505 73.7616C231.505 73.7616 231.532 73.8188 231.585 73.9334C231.64 74.0578 231.742 74.1919 231.889 74.3356C232.048 74.4881 232.269 74.6081 232.551 74.6958C232.834 74.7933 233.194 74.8164 233.631 74.765C234.148 74.7042 234.548 74.5515 234.831 74.3067C235.126 74.0707 235.318 73.7762 235.407 73.4233C235.508 73.0792 235.535 72.7135 235.49 72.3262L235.385 71.4323L235.31 71.4411C235.221 71.6228 235.084 71.8302 234.9 72.0633C234.725 72.2853 234.477 72.4906 234.157 72.6793C233.837 72.868 233.438 72.9904 232.961 73.0465C232.365 73.1166 231.831 73.0637 231.357 72.8879C230.893 72.7109 230.49 72.4512 230.148 72.1088C229.814 71.7554 229.545 71.349 229.34 70.8898C229.135 70.4306 229.004 69.9527 228.945 69.4561C228.887 68.9596 228.905 68.4691 228.999 67.9848C229.092 67.4905 229.261 67.0378 229.504 66.6265C229.757 66.2041 230.088 65.853 230.498 65.5731C230.918 65.2921 231.426 65.1165 232.022 65.0464C232.499 64.9904 232.915 65.0169 233.27 65.1262C233.624 65.2255 233.918 65.3672 234.151 65.5512C234.382 65.7253 234.559 65.8959 234.679 66.063L234.753 66.0542L234.617 64.8922L236.315 64.6924L237.186 72.1115C237.269 72.8166 237.198 73.4593 236.975 74.0394C236.751 74.6195 236.374 75.0969 235.844 75.4713C235.314 75.8458 234.637 76.0816 233.812 76.1785ZM233.184 71.6006C233.671 71.5433 234.064 71.3713 234.362 71.0844C234.66 70.7876 234.864 70.4312 234.977 70.0153C235.089 69.5993 235.119 69.1728 235.068 68.7358C235.017 68.2988 234.888 67.891 234.683 67.5125C234.477 67.1339 234.196 66.8397 233.839 66.63C233.482 66.4203 233.061 66.344 232.574 66.4013C232.077 66.4597 231.68 66.6323 231.381 66.9192C231.083 67.206 230.877 67.5574 230.765 67.9734C230.653 68.3894 230.622 68.8158 230.673 69.2528C230.725 69.6898 230.853 70.0976 231.059 70.4762C231.264 70.8548 231.546 71.1539 231.904 71.3736C232.261 71.5833 232.688 71.659 233.184 71.6006ZM239.364 72.3386L238.035 61.0163L239.733 60.8165L240.27 65.3901L240.359 65.3796C240.413 65.2324 240.512 65.0495 240.658 64.831C240.802 64.6026 241.014 64.3914 241.293 64.1974C241.582 64.0023 241.96 63.8773 242.427 63.8224C243.013 63.7534 243.52 63.8297 243.949 64.0511C244.378 64.2725 244.718 64.595 244.969 65.0186C245.23 65.441 245.392 65.9203 245.455 66.4566L246.053 71.5516L244.355 71.7514L243.778 66.8352C243.722 66.3585 243.54 65.972 243.234 65.6758C242.937 65.3784 242.53 65.2601 242.014 65.3209C241.607 65.3688 241.286 65.5122 241.053 65.7512C240.828 65.979 240.675 66.2638 240.594 66.6056C240.512 66.9374 240.493 67.2871 240.536 67.6546L241.062 72.1388L239.364 72.3386ZM251.258 71.0904C250.632 71.164 250.117 71.1088 249.713 70.9247C249.309 70.7407 249 70.4699 248.787 70.1124C248.582 69.7437 248.454 69.3359 248.401 68.889L247.912 64.7177L246.526 64.8806L246.365 63.5101L247.751 63.3471L247.52 61.3806L249.218 61.1808L249.449 63.1473L251.296 62.93L251.457 64.3005L249.61 64.5179L250.096 68.6594C250.184 69.4043 250.64 69.7283 251.464 69.6313C251.672 69.6067 251.864 69.5691 252.04 69.5182C252.215 69.4674 252.303 69.442 252.303 69.442L252.465 70.8275C252.465 70.8275 252.343 70.862 252.1 70.9309C251.866 70.9987 251.585 71.0518 251.258 71.0904ZM254.57 70.5496L253.804 64.0244L252.523 64.1751L252.362 62.8045L253.644 62.6538L253.544 61.8047C253.508 61.4968 253.511 61.1792 253.553 60.8521C253.595 60.5249 253.695 60.2161 253.852 59.9258C254.008 59.6255 254.24 59.3766 254.55 59.1792C254.857 58.9718 255.26 58.8389 255.756 58.7804C256.044 58.7465 256.286 58.7433 256.48 58.7708C256.673 58.7883 256.77 58.7971 256.77 58.7971L256.921 60.0783C256.921 60.0783 256.844 60.0722 256.692 60.0599C256.549 60.0464 256.389 60.0502 256.21 60.0713C255.773 60.1227 255.491 60.2918 255.363 60.5787C255.235 60.8556 255.194 61.1977 255.242 61.6049L255.342 62.454L257.1 62.2472L257.261 63.6178L255.503 63.8246L256.269 70.3498L254.57 70.5496ZM262.132 69.811C261.338 69.9045 260.688 69.7292 260.183 69.2852C259.678 68.8412 259.377 68.207 259.28 67.3827L258.656 62.0642L260.354 61.8644L260.954 66.9743C261.01 67.451 261.178 67.8089 261.457 68.0478C261.746 68.2757 262.109 68.3639 262.546 68.3125C262.973 68.2622 263.302 68.1127 263.535 67.8638C263.768 67.6149 263.919 67.3152 263.988 66.9647C264.067 66.603 264.084 66.2385 264.041 65.871L263.527 61.4911L265.225 61.2913L266.152 69.1871L264.454 69.3869L264.321 68.2546L264.232 68.2651C264.17 68.4235 264.061 68.6174 263.907 68.847C263.762 69.0655 263.544 69.2674 263.253 69.4526C262.973 69.6366 262.599 69.7561 262.132 69.811ZM268.271 68.9378L266.957 57.6138L268.64 57.4157L269.969 68.738L268.271 68.9378ZM280.595 67.6389C279.711 67.7429 278.918 67.6751 278.215 67.4356C277.521 67.185 276.919 66.8178 276.409 66.3341C275.908 65.8392 275.505 65.2725 275.198 64.634C274.9 63.9843 274.71 63.3069 274.627 62.6017C274.544 61.8966 274.573 61.1935 274.712 60.4924C274.861 59.7902 275.123 59.1452 275.497 58.5575C275.879 57.9586 276.38 57.4617 276.998 57.0668C277.626 56.6707 278.382 56.4207 279.266 56.3167C279.991 56.2314 280.623 56.2527 281.161 56.3807C281.71 56.5074 282.175 56.6994 282.558 56.9564C282.949 57.2024 283.269 57.477 283.516 57.7802C283.773 58.0822 283.968 58.3764 284.103 58.6627C284.247 58.9478 284.35 59.1823 284.412 59.3663C284.472 59.5404 284.503 59.6275 284.503 59.6275L282.76 59.8326C282.76 59.8326 282.731 59.7604 282.674 59.6161C282.625 59.4607 282.528 59.2758 282.382 59.0614C282.246 58.8458 282.051 58.6422 281.797 58.4506C281.552 58.2478 281.237 58.0936 280.852 57.9879C280.475 57.871 280.014 57.8447 279.468 57.909C278.882 57.9779 278.379 58.1529 277.959 58.4339C277.549 58.7137 277.217 59.0649 276.965 59.4873C276.713 59.9096 276.54 60.3729 276.449 60.8771C276.367 61.3801 276.355 61.8849 276.415 62.3914C276.474 62.8979 276.602 63.3864 276.798 63.8567C277.003 64.3159 277.278 64.7266 277.623 65.0888C277.966 65.4411 278.37 65.7057 278.833 65.8827C279.307 66.0586 279.837 66.1121 280.423 66.0431C280.969 65.9789 281.412 65.8512 281.752 65.6602C282.101 65.458 282.371 65.2299 282.563 64.9758C282.765 64.7205 282.907 64.4722 282.989 64.2309C283.082 63.9884 283.134 63.791 283.146 63.6385C283.167 63.4749 283.178 63.3931 283.178 63.3931L284.921 63.188C284.921 63.188 284.912 63.2847 284.894 63.4781C284.877 63.6715 284.831 63.9236 284.757 64.2344C284.691 64.5341 284.569 64.8656 284.39 65.229C284.22 65.5813 283.974 65.9275 283.651 66.2675C283.337 66.5964 282.928 66.8862 282.424 67.1368C281.93 67.3863 281.32 67.5536 280.595 67.6389ZM287.065 57.3476C286.757 57.3838 286.491 57.3093 286.268 57.1241C286.045 56.9389 285.917 56.7072 285.884 56.4292C285.851 56.1411 285.921 55.8861 286.097 55.6641C286.271 55.4322 286.512 55.2981 286.82 55.2619C287.128 55.2257 287.393 55.3002 287.616 55.4854C287.848 55.6595 287.981 55.8905 288.015 56.1785C288.049 56.4666 287.973 56.7271 287.789 56.9602C287.614 57.1822 287.372 57.3113 287.065 57.3476ZM287.316 66.6972L286.389 58.8014L288.088 58.6016L289.015 66.4974L287.316 66.6972ZM294.669 65.9832C294.043 66.0568 293.528 66.0016 293.124 65.8176C292.72 65.6335 292.411 65.3627 292.198 65.0052C291.994 64.6365 291.865 64.2288 291.813 63.7818L291.323 59.6105L289.938 59.7735L289.777 58.4029L291.162 58.2399L290.932 56.2734L292.63 56.0736L292.861 58.0401L294.708 57.8228L294.869 59.1933L293.022 59.4107L293.508 63.5522C293.595 64.2971 294.051 64.6211 294.875 64.5241C295.084 64.4996 295.276 64.4619 295.451 64.411C295.626 64.3602 295.714 64.3348 295.714 64.3348L295.877 65.7203C295.877 65.7203 295.755 65.7548 295.511 65.8237C295.278 65.8915 294.997 65.9446 294.669 65.9832ZM297.583 56.1101C297.275 56.1463 297.009 56.0719 296.786 55.8867C296.563 55.7015 296.435 55.4698 296.403 55.1917C296.369 54.9037 296.44 54.6487 296.615 54.4267C296.789 54.1947 297.03 54.0607 297.338 54.0245C297.646 53.9882 297.911 54.0627 298.134 54.2479C298.366 54.422 298.499 54.6531 298.533 54.9411C298.567 55.2291 298.492 55.4897 298.308 55.7228C298.132 55.9448 297.891 56.0739 297.583 56.1101ZM297.835 65.4597L296.908 57.564L298.606 57.3642L299.533 65.2599L297.835 65.4597ZM301.371 65.0437L301.233 63.8668L305.015 57.9997L300.814 58.494L300.653 57.1234L306.91 56.3873L307.048 57.5642L303.266 63.4312L307.676 62.9125L307.837 64.2831L301.371 65.0437ZM312.889 63.8397C312.224 63.9179 311.634 63.8715 311.121 63.7003C310.616 63.518 310.182 63.2519 309.819 62.902C309.465 62.5409 309.179 62.1264 308.963 61.6584C308.757 61.1893 308.624 60.7015 308.565 60.195C308.507 59.6984 308.523 59.198 308.615 58.6938C308.707 58.1896 308.884 57.7208 309.145 57.2873C309.406 56.8538 309.762 56.4948 310.211 56.2103C310.66 55.9158 311.207 55.7306 311.853 55.6547C312.548 55.5729 313.178 55.66 313.741 55.9158C314.314 56.1606 314.785 56.5734 315.155 57.1541C315.534 57.7237 315.777 58.4604 315.883 59.3642L315.937 59.8261L310.336 60.485C310.447 61.0862 310.711 61.5837 311.13 61.9774C311.549 62.3712 312.081 62.5301 312.727 62.4542C313.094 62.4109 313.39 62.3157 313.614 62.1685C313.838 62.0113 314.004 61.8457 314.115 61.6716C314.225 61.4975 314.298 61.348 314.334 61.2229C314.38 61.0967 314.402 61.0336 314.402 61.0336L315.982 60.8479C315.982 60.8479 315.967 60.9402 315.939 61.1248C315.909 61.2995 315.839 61.5241 315.731 61.7987C315.632 62.0721 315.474 62.3525 315.256 62.64C315.038 62.9274 314.735 63.1845 314.349 63.4111C313.962 63.6279 313.475 63.7707 312.889 63.8397ZM310.211 59.2915L314.159 58.827C314.037 58.1365 313.769 57.6495 313.353 57.3662C312.947 57.0817 312.495 56.9686 311.999 57.027C311.443 57.0925 311.003 57.3305 310.678 57.7412C310.353 58.142 310.197 58.6588 310.211 59.2915ZM318.153 63.0694L317.226 55.1736L318.924 54.9738L319.059 56.1209L319.149 56.1104C319.202 55.9632 319.301 55.7803 319.447 55.5618C319.591 55.3334 319.803 55.1222 320.082 54.9282C320.371 54.7331 320.749 54.6081 321.216 54.5532C321.802 54.4842 322.309 54.5605 322.738 54.7819C323.167 55.0033 323.507 55.3258 323.758 55.7494C324.019 56.1718 324.181 56.6511 324.244 57.1874L324.842 62.2824L323.144 62.4822L322.567 57.566C322.511 57.0893 322.329 56.7028 322.023 56.4066C321.726 56.1092 321.319 55.9909 320.803 56.0517C320.396 56.0996 320.075 56.243 319.842 56.482C319.617 56.7098 319.464 56.9946 319.383 57.3364C319.301 57.6682 319.282 58.0179 319.325 58.3854L319.851 62.8696L318.153 63.0694ZM329.866 61.8424C329.24 61.9161 328.714 61.8924 328.287 61.7715C327.868 61.6394 327.526 61.4633 327.258 61.243C326.989 61.0128 326.78 60.7756 326.631 60.5314C326.491 60.2861 326.397 60.0807 326.347 59.9154C326.296 59.7401 326.271 59.6525 326.271 59.6525L327.925 59.4579C327.925 59.4579 327.947 59.5207 327.992 59.6463C328.046 59.7609 328.136 59.8911 328.264 60.0372C328.392 60.1832 328.578 60.3074 328.822 60.4096C329.064 60.5019 329.374 60.5259 329.751 60.4815C330.208 60.4278 330.534 60.2837 330.728 60.0495C330.932 59.814 331.018 59.5622 330.986 59.2941C330.956 59.0358 330.838 58.8433 330.632 58.7166C330.425 58.5898 330.144 58.5071 329.787 58.4686L328.686 58.3564C328.257 58.3061 327.849 58.2182 327.462 58.0926C327.084 57.9559 326.763 57.757 326.501 57.4958C326.248 57.2236 326.093 56.854 326.039 56.3872C325.958 55.702 326.15 55.1055 326.614 54.5978C327.078 54.0901 327.747 53.7848 328.621 53.682C329.187 53.6154 329.663 53.64 330.049 53.7556C330.445 53.8701 330.766 54.0337 331.013 54.2464C331.258 54.4491 331.45 54.6632 331.587 54.8887C331.723 55.1043 331.815 55.2898 331.864 55.4452C331.921 55.5895 331.949 55.6617 331.949 55.6617L330.355 55.8492C330.355 55.8492 330.335 55.8013 330.293 55.7055C330.252 55.6097 330.174 55.503 330.059 55.3856C329.944 55.2583 329.781 55.1566 329.57 55.0807C329.369 54.9936 329.104 54.9694 328.776 55.0079C328.33 55.0605 328.018 55.1978 327.843 55.4198C327.668 55.6418 327.594 55.867 327.62 56.0954C327.648 56.3338 327.765 56.5114 327.97 56.6282C328.184 56.734 328.454 56.8029 328.78 56.8351L329.865 56.949C330.589 57.0249 331.201 57.2198 331.701 57.5335C332.2 57.8373 332.489 58.3319 332.57 59.0172C332.623 59.474 332.553 59.9052 332.359 60.3106C332.174 60.705 331.871 61.0427 331.451 61.3237C331.03 61.5947 330.501 61.7677 329.866 61.8424ZM334.956 63.0561L335.873 61.0904C335.592 61.1033 335.347 61.0265 335.136 60.86C334.934 60.6824 334.816 60.4495 334.782 60.1615C334.745 59.8437 334.819 59.5782 335.006 59.3649C335.201 59.1406 335.447 59.0109 335.745 58.9758C336.053 58.9396 336.323 59.0086 336.555 59.1827C336.796 59.3457 336.936 59.596 336.975 59.9337C337.012 60.2416 336.938 60.6026 336.755 61.0168C336.582 61.4299 336.279 62.0243 335.847 62.8002L335.76 62.9614L334.956 63.0561ZM342.83 60.1662L341.536 49.1419L345.677 48.6547C346.541 48.553 347.283 48.6471 347.901 48.9369C348.517 49.2167 349.002 49.6178 349.356 50.1401C349.708 50.6525 349.919 51.2116 349.991 51.8174C350.062 52.4232 349.986 53.0212 349.763 53.6113C349.54 54.2013 349.162 54.709 348.628 55.1343C348.093 55.5497 347.393 55.8082 346.529 55.9099L344.131 56.192L344.573 59.9611L342.83 60.1662ZM345.856 50.1743L343.457 50.4564L343.952 54.6725L346.351 54.3903C346.827 54.3342 347.213 54.1882 347.508 53.9521C347.801 53.7062 348.008 53.4149 348.13 53.0784C348.25 52.732 348.29 52.385 348.249 52.0373C348.207 51.6798 348.088 51.3515 347.892 51.0523C347.695 50.7433 347.425 50.5081 347.084 50.3469C346.742 50.1757 346.333 50.1182 345.856 50.1743ZM355.984 58.7698C355.12 58.8714 354.367 58.7636 353.726 58.4464C353.094 58.128 352.588 57.674 352.207 57.0845C351.835 56.4939 351.608 55.846 351.525 55.1408C351.443 54.4357 351.513 53.7527 351.738 53.092C351.972 52.43 352.36 51.8709 352.9 51.4147C353.451 50.9572 354.158 50.6777 355.022 50.576C355.876 50.4755 356.619 50.5845 357.25 50.9029C357.892 51.2201 358.398 51.6741 358.769 52.2647C359.151 52.8542 359.383 53.5015 359.466 54.2067C359.548 54.9119 359.473 55.5954 359.238 56.2573C359.014 56.9181 358.626 57.4772 358.076 57.9346C357.535 58.3909 356.838 58.6693 355.984 58.7698ZM355.814 57.3247C356.301 57.2674 356.694 57.0954 356.992 56.8085C357.301 56.5205 357.515 56.163 357.636 55.7359C357.767 55.3077 357.806 54.8651 357.752 54.4082C357.698 53.9415 357.558 53.5199 357.332 53.1437C357.116 52.7564 356.824 52.4584 356.457 52.2498C356.1 52.0401 355.678 51.9638 355.192 52.0211C354.705 52.0784 354.307 52.251 353.999 52.539C353.69 52.827 353.476 53.1846 353.355 53.6116C353.232 54.0288 353.199 54.4707 353.253 54.9375C353.307 55.3944 353.442 55.8165 353.659 56.2038C353.876 56.5912 354.167 56.8891 354.534 57.0977C354.901 57.3063 355.328 57.3819 355.814 57.3247ZM363.43 57.7427L359.985 50.1431L361.699 49.9416L364.097 55.4441L365.244 49.5245L366.823 49.3387L369.311 54.8307L370.369 48.9216L372.097 48.7183L370.491 56.912L368.689 57.1241L366.324 51.9046L365.247 57.5289L363.43 57.7427ZM377.861 56.196C377.196 56.2743 376.606 56.2278 376.093 56.0566C375.588 55.8744 375.154 55.6083 374.791 55.2583C374.436 54.8972 374.151 54.4827 373.935 54.0148C373.729 53.5456 373.596 53.0578 373.537 52.5513C373.478 52.0547 373.495 51.5543 373.587 51.0501C373.679 50.546 373.855 50.0771 374.117 49.6436C374.378 49.2101 374.733 48.8511 375.183 48.5666C375.632 48.2722 376.179 48.087 376.825 48.011C377.52 47.9292 378.149 48.0163 378.713 48.2722C379.286 48.517 379.757 48.9297 380.127 49.5104C380.506 50.0801 380.749 50.8168 380.855 51.7206L380.909 52.1824L375.308 52.8414C375.418 53.4425 375.683 53.94 376.102 54.3338C376.521 54.7275 377.053 54.8865 377.698 54.8105C378.066 54.7673 378.362 54.672 378.586 54.5248C378.809 54.3677 378.976 54.202 379.087 54.0279C379.197 53.8538 379.27 53.7043 379.306 53.5793C379.352 53.4531 379.374 53.39 379.374 53.39L380.953 53.2042C380.953 53.2042 380.939 53.2965 380.91 53.4811C380.881 53.6558 380.811 53.8804 380.703 54.155C380.604 54.4284 380.445 54.7089 380.227 54.9963C380.009 55.2837 379.707 55.5408 379.321 55.7675C378.934 55.9842 378.447 56.1271 377.861 56.196ZM375.183 51.6478L379.13 51.1834C379.009 50.4928 378.74 50.0059 378.325 49.7225C377.919 49.438 377.467 49.3249 376.971 49.3834C376.415 49.4488 375.974 49.6869 375.65 50.0976C375.325 50.4983 375.169 51.0151 375.183 51.6478ZM383.154 55.4223L382.227 47.5265L383.925 47.3267L384.048 48.3695L384.107 48.3625C384.22 48.0371 384.422 47.7365 384.711 47.4608C385.01 47.1739 385.467 46.9943 386.083 46.9218C386.272 46.8996 386.432 46.8909 386.563 46.8955C386.705 46.8991 386.775 46.9008 386.775 46.9008L386.968 48.5396C386.968 48.5396 386.892 48.5384 386.741 48.536C386.589 48.5337 386.419 48.5436 386.231 48.5658C385.535 48.6476 385.027 48.9088 384.707 49.3493C384.395 49.7787 384.29 50.4304 384.392 51.3044L384.852 55.2225L383.154 55.4223ZM390.217 54.5913L389.451 48.0662L388.17 48.2169L388.009 46.8463L389.29 46.6956L389.19 45.8464C389.154 45.5385 389.157 45.221 389.199 44.8938C389.242 44.5667 389.341 44.2579 389.498 43.9675C389.654 43.6672 389.887 43.4184 390.196 43.2209C390.504 43.0135 390.906 42.8806 391.403 42.8222C391.691 42.7883 391.932 42.7851 392.127 42.8125C392.32 42.8301 392.417 42.8388 392.417 42.8388L392.567 44.12C392.567 44.12 392.491 44.1139 392.338 44.1016C392.196 44.0882 392.035 44.092 391.856 44.113C391.419 44.1644 391.137 44.3336 391.01 44.6204C390.881 44.8973 390.841 45.2394 390.889 45.6466L390.988 46.4958L392.746 46.289L392.907 47.6595L391.149 47.8664L391.915 54.3915L390.217 54.5913ZM397.779 53.8527C396.984 53.9462 396.335 53.7709 395.829 53.3269C395.324 52.8829 395.023 52.2487 394.926 51.4244L394.302 46.1059L396 45.9061L396.6 51.016C396.656 51.4928 396.824 51.8506 397.104 52.0895C397.392 52.3174 397.755 52.4056 398.192 52.3542C398.619 52.304 398.949 52.1544 399.182 51.9055C399.414 51.6567 399.565 51.3569 399.635 51.0064C399.713 50.6448 399.731 50.2802 399.688 49.9127L399.173 45.5328L400.872 45.333L401.799 53.2288L400.1 53.4286L399.967 52.2964L399.878 52.3069C399.816 52.4652 399.708 52.6592 399.554 52.8888C399.408 53.1073 399.19 53.3091 398.9 53.4943C398.619 53.6784 398.246 53.7978 397.779 53.8527ZM403.918 52.9795L402.603 41.6555L404.287 41.4575L405.616 52.7797L403.918 52.9795ZM414.407 51.7455L409.269 41.1734L411.101 40.9578L415.32 49.7501L417.373 40.22L419.206 40.0044L416.641 51.4826L414.407 51.7455ZM424.986 50.652C424.122 50.7536 423.369 50.6459 422.727 50.3286C422.096 50.0102 421.59 49.5563 421.208 48.9668C420.837 48.3761 420.61 47.7282 420.527 47.0231C420.444 46.3179 420.515 45.635 420.74 44.9742C420.974 44.3123 421.362 43.7532 421.902 43.2969C422.452 42.8395 423.16 42.5599 424.024 42.4583C424.878 42.3578 425.621 42.4667 426.252 42.7851C426.893 43.1024 427.4 43.5563 427.771 44.147C428.152 44.7365 428.385 45.3838 428.467 46.0889C428.55 46.7941 428.474 47.4776 428.24 48.1396C428.015 48.8003 427.628 49.3594 427.077 49.8169C426.537 50.2731 425.84 50.5515 424.986 50.652ZM424.816 49.2069C425.303 49.1497 425.695 48.9776 425.994 48.6908C426.302 48.4027 426.517 48.0452 426.638 47.6181C426.769 47.1899 426.808 46.7473 426.754 46.2905C426.699 45.8237 426.559 45.4022 426.334 45.0259C426.117 44.6386 425.825 44.3406 425.459 44.1321C425.102 43.9223 424.68 43.8461 424.193 43.9033C423.707 43.9606 423.309 44.1332 423.001 44.4212C422.692 44.7093 422.477 45.0668 422.356 45.4939C422.234 45.911 422.2 46.353 422.255 46.8198C422.309 47.2766 422.444 47.6987 422.661 48.0861C422.877 48.4734 423.169 48.7714 423.536 48.9799C423.903 49.1885 424.329 49.2642 424.816 49.2069ZM430.742 40.4445C430.434 40.4808 430.168 40.4063 429.945 40.2211C429.722 40.0359 429.594 39.8042 429.562 39.5261C429.528 39.2381 429.598 38.9831 429.774 38.7611C429.948 38.5292 430.189 38.3951 430.497 38.3589C430.805 38.3226 431.07 38.3971 431.293 38.5823C431.525 38.7564 431.658 38.9875 431.692 39.2755C431.726 39.5635 431.651 39.8241 431.466 40.0572C431.291 40.2792 431.05 40.4083 430.742 40.4445ZM430.993 49.7942L430.067 41.8984L431.765 41.6986L432.692 49.5944L430.993 49.7942ZM438.719 49.0364C438.053 49.1146 437.459 49.0688 436.935 48.8988C436.411 48.7188 435.962 48.4545 435.589 48.1057C435.214 47.747 434.914 47.3342 434.688 46.8674C434.472 46.3994 434.335 45.9122 434.275 45.4057C434.216 44.8992 434.237 44.3932 434.339 43.8879C434.45 43.3813 434.647 42.9151 434.929 42.4892C435.211 42.0534 435.586 41.6921 436.056 41.4052C436.524 41.1084 437.091 40.9209 437.757 40.8426C438.412 40.7655 438.965 40.8011 439.416 40.9495C439.875 41.0868 440.25 41.2843 440.542 41.542C440.834 41.7996 441.062 42.0648 441.225 42.3377C441.388 42.6105 441.496 42.8445 441.549 43.0396C441.612 43.2336 441.643 43.3306 441.643 43.3306L440.034 43.5198C440.034 43.5198 440.001 43.4483 439.934 43.3051C439.877 43.1608 439.772 42.997 439.619 42.8135C439.467 42.6301 439.253 42.479 438.977 42.3604C438.711 42.2407 438.365 42.2059 437.938 42.2562C437.431 42.3157 437.024 42.4945 436.717 42.7925C436.408 43.0805 436.189 43.4386 436.058 43.8668C435.937 44.2939 435.904 44.7408 435.958 45.2076C436.013 45.6744 436.149 46.1015 436.366 46.4888C436.592 46.875 436.889 47.1774 437.257 47.3959C437.624 47.6044 438.061 47.6789 438.567 47.6193C438.994 47.5691 439.323 47.4549 439.554 47.2767C439.795 47.0973 439.968 46.9007 440.074 46.6869C440.18 46.4731 440.244 46.2893 440.266 46.1357C440.298 45.9809 440.314 45.9035 440.314 45.9035L441.923 45.7142C441.923 45.7142 441.915 45.8158 441.899 46.0192C441.892 46.2213 441.841 46.474 441.746 46.7772C441.651 47.0804 441.491 47.3912 441.266 47.7096C441.042 48.028 440.723 48.3122 440.309 48.5623C439.904 48.8012 439.374 48.9592 438.719 49.0364ZM447.779 47.9704C447.114 48.0487 446.524 48.0022 446.011 47.8311C445.506 47.6488 445.072 47.3827 444.709 47.0327C444.355 46.6717 444.069 46.2572 443.853 45.7892C443.647 45.3201 443.514 44.8322 443.455 44.3257C443.397 43.8291 443.413 43.3287 443.505 42.8245C443.597 42.3204 443.774 41.8515 444.035 41.418C444.296 40.9845 444.652 40.6255 445.102 40.341C445.55 40.0466 446.097 39.8614 446.743 39.7854C447.438 39.7036 448.068 39.7907 448.631 40.0466C449.204 40.2914 449.675 40.7041 450.045 41.2849C450.424 41.8545 450.667 42.5912 450.773 43.495L450.827 43.9568L445.226 44.6158C445.337 45.217 445.601 45.7144 446.02 46.1082C446.439 46.502 446.971 46.6609 447.617 46.5849C447.984 46.5417 448.28 46.4465 448.504 46.2992C448.728 46.1421 448.894 45.9765 449.005 45.8024C449.115 45.6283 449.188 45.4787 449.224 45.3537C449.27 45.2275 449.293 45.1644 449.293 45.1644L450.872 44.9786C450.872 44.9786 450.857 45.0709 450.829 45.2555C450.799 45.4302 450.729 45.6549 450.621 45.9294C450.522 46.2029 450.364 46.4833 450.146 46.7707C449.928 47.0582 449.626 47.3152 449.239 47.5419C448.852 47.7586 448.365 47.9015 447.779 47.9704ZM445.101 43.4222L449.049 42.9578C448.927 42.2672 448.659 41.7803 448.243 41.4969C447.837 41.2124 447.386 41.0994 446.889 41.1578C446.333 41.2232 445.893 41.4613 445.568 41.872C445.243 42.2728 445.087 42.7895 445.101 43.4222ZM456.129 46.9881C455.503 47.0617 454.977 47.0381 454.55 46.9171C454.132 46.7851 453.789 46.609 453.521 46.3887C453.252 46.1585 453.043 45.9213 452.894 45.6771C452.754 45.4317 452.66 45.2264 452.61 45.0611C452.559 44.8858 452.534 44.7982 452.534 44.7982L454.188 44.6036C454.188 44.6036 454.21 44.6664 454.255 44.792C454.309 44.9065 454.399 45.0368 454.527 45.1829C454.655 45.3289 454.841 45.4531 455.085 45.5553C455.327 45.6476 455.637 45.6716 456.014 45.6272C456.471 45.5734 456.797 45.4294 456.991 45.1952C457.195 44.9597 457.281 44.7079 457.249 44.4398C457.219 44.1815 457.101 43.989 456.895 43.8622C456.688 43.7355 456.407 43.6528 456.05 43.6142L454.949 43.5021C454.521 43.4518 454.112 43.3639 453.725 43.2383C453.347 43.1016 453.026 42.9026 452.764 42.6415C452.511 42.3692 452.356 41.9997 452.302 41.5329C452.221 40.8476 452.413 40.2511 452.877 39.7435C453.341 39.2358 454.01 38.9305 454.884 38.8277C455.45 38.7611 455.926 38.7856 456.312 38.9013C456.708 39.0158 457.029 39.1794 457.276 39.3921C457.521 39.5948 457.713 39.8089 457.85 40.0344C457.986 40.25 458.078 40.4355 458.127 40.5909C458.184 40.7352 458.212 40.8073 458.212 40.8073L456.618 40.9949C456.618 40.9949 456.598 40.947 456.556 40.8512C456.515 40.7553 456.437 40.6487 456.322 40.5313C456.207 40.4039 456.044 40.3023 455.833 40.2263C455.632 40.1393 455.367 40.115 455.04 40.1536C454.593 40.2062 454.281 40.3435 454.106 40.5655C453.931 40.7875 453.857 41.0127 453.883 41.2411C453.911 41.4795 454.028 41.6571 454.233 41.7739C454.447 41.8797 454.717 41.9486 455.043 41.9807L456.128 42.0947C456.852 42.1706 457.464 42.3655 457.964 42.6792C458.463 42.983 458.752 43.4775 458.833 44.1628C458.886 44.6197 458.816 45.0509 458.622 45.4563C458.437 45.8507 458.134 46.1883 457.714 46.4693C457.293 46.7404 456.764 46.9133 456.129 46.9881Z" fill="white"/>
<path d="M550.46 382.788H137V552.37H550.46V382.788Z" fill="white" stroke="white" stroke-linecap="round" stroke-linejoin="round"/>
<path d="M165.886 454.213C164.671 454.293 163.454 454.115 162.313 453.691C161.171 453.267 160.132 452.607 159.264 451.754C157.658 449.725 156.859 447.174 157.021 444.59V424.382C156.859 421.798 157.658 419.246 159.264 417.218C161.074 415.565 163.436 414.648 165.886 414.648C168.336 414.648 170.698 415.565 172.508 417.218C174.003 418.822 174.751 421.281 174.751 424.382V427.696H169.09V423.954C169.09 421.388 168.022 420.212 165.993 420.212C163.963 420.212 162.895 421.495 162.895 423.954V444.911C162.895 447.37 163.963 448.653 165.993 448.653C168.022 448.653 169.09 447.37 169.09 444.911V437.426H166.099V431.973H174.751V444.483C174.913 447.067 174.114 449.619 172.508 451.647C171.013 453.358 168.876 454.213 165.886 454.213Z" fill="#007376"/>
<path d="M178.703 415.293H195.045V420.746H184.684V430.904H192.909V436.357H184.684V448.119H195.045V453.572H178.703V415.293Z" fill="#007376"/>
<path d="M198.463 415.293H205.939L211.814 438.282H211.921V415.293H217.261V453.679H211.066L203.91 425.665H203.803V453.679H198.463V415.293Z" fill="#007376"/>
<path d="M221.747 415.293H230.933C233.924 415.293 236.166 416.148 237.662 417.752C239.157 419.356 239.905 421.708 239.905 424.809V444.269C239.905 447.406 239.157 449.758 237.662 451.326C236.166 452.93 233.924 453.786 230.933 453.786H221.747V415.293ZM230.826 448.119C231.238 448.133 231.649 448.064 232.034 447.917C232.419 447.77 232.771 447.548 233.069 447.263C233.713 446.446 234.019 445.413 233.923 444.376V424.382C233.988 423.348 233.685 422.326 233.069 421.495C232.771 421.21 232.419 420.987 232.034 420.841C231.649 420.694 231.238 420.625 230.826 420.639H227.729V448.012H230.826V448.119Z" fill="#007376"/>
<path d="M243.857 415.293H260.199V420.746H249.838V430.904H258.063V436.357H249.838V448.119H260.199V453.572H243.857V415.293Z" fill="#007376"/>
<path d="M263.723 415.293H272.589C275.65 415.293 277.893 416.042 279.318 417.538C280.706 418.928 281.454 421.174 281.454 424.168V426.52C281.454 430.476 280.172 433.042 277.502 434.112C278.189 434.287 278.827 434.62 279.364 435.084C279.902 435.548 280.324 436.13 280.599 436.785C281.303 438.514 281.63 440.373 281.561 442.238V448.974C281.534 449.867 281.569 450.76 281.667 451.647C281.746 452.312 281.926 452.962 282.201 453.572H276.113C275.933 453.012 275.79 452.44 275.686 451.861C275.576 450.867 275.54 449.866 275.579 448.867V441.81C275.689 440.538 275.389 439.264 274.725 438.175C274.366 437.776 273.917 437.471 273.414 437.285C272.912 437.098 272.372 437.037 271.841 437.106H269.812V453.572H263.83V415.293H263.723ZM271.841 431.759C272.329 431.8 272.82 431.735 273.281 431.569C273.741 431.403 274.161 431.14 274.511 430.797C275.226 429.93 275.572 428.816 275.472 427.696V424.702C275.575 423.648 275.311 422.59 274.725 421.708C274.454 421.381 274.11 421.123 273.72 420.956C273.329 420.788 272.905 420.717 272.482 420.746H269.812V431.759H271.841Z" fill="#007376"/>
<path d="M294.378 415.293H310.72V420.746H300.359V430.904H308.583V436.357H300.359V448.119H310.72V453.572H294.378V415.293Z" fill="#007376"/>
<path d="M331.868 457.207C329.091 457.207 327.489 456.031 326.848 453.572C325.579 454.019 324.241 454.236 322.896 454.213C319.905 454.213 317.662 453.358 316.167 451.647C314.565 449.936 313.817 447.584 313.817 444.483V424.275C313.817 421.174 314.565 418.822 316.167 417.111C317.043 416.23 318.096 415.546 319.256 415.103C320.416 414.661 321.657 414.47 322.896 414.545C325.887 414.545 328.13 415.4 329.625 417.111C331.227 418.822 331.975 421.174 331.975 424.275V444.483C332.092 446.715 331.493 448.925 330.266 450.792C330.469 451.122 330.767 451.383 331.12 451.54L332.509 451.754H333.47V457.207H331.868ZM322.789 448.76C324.819 448.76 325.887 447.477 325.887 445.018V423.954C325.887 421.388 324.819 420.212 322.789 420.212C320.76 420.212 319.692 421.495 319.692 423.954V444.911C319.692 447.477 320.76 448.76 322.789 448.76Z" fill="#007376"/>
<path d="M344.685 454.213C343.471 454.293 342.253 454.115 341.112 453.691C339.971 453.267 338.932 452.607 338.063 451.754C336.457 449.725 335.658 447.174 335.82 444.59V415.293H341.801V445.018C341.706 446.038 341.97 447.06 342.549 447.905C343.171 448.446 343.968 448.745 344.792 448.745C345.616 448.745 346.413 448.446 347.035 447.905C347.679 447.088 347.985 446.054 347.889 445.018V415.293H353.657V444.59C353.819 447.174 353.02 449.725 351.414 451.754C350.518 452.599 349.459 453.253 348.302 453.676C347.145 454.099 345.915 454.282 344.685 454.213Z" fill="#007376"/>
<path d="M362.416 415.293H370.533L376.728 453.679H370.747L369.679 446.087H362.843L361.775 453.572H356.221L362.416 415.293ZM368.931 440.955L366.261 422.029H366.154L363.59 440.955H368.931Z" fill="#007376"/>
<path d="M379.719 415.293H385.7V448.226H395.527V453.679H379.719V415.293Z" fill="#007376"/>
<path d="M407.169 415.293H416.034C419.167 415.293 421.41 416.042 422.763 417.538C424.152 418.928 424.899 421.174 424.899 424.168V426.52C424.899 430.476 423.618 433.042 420.947 434.112C421.635 434.287 422.272 434.62 422.81 435.084C423.347 435.548 423.77 436.13 424.045 436.785C424.748 438.514 425.076 440.373 425.006 442.238V448.974C424.979 449.867 425.015 450.76 425.113 451.647C425.191 452.312 425.371 452.962 425.647 453.572H419.559C419.379 453.012 419.236 452.44 419.131 451.861C419.021 450.867 418.985 449.866 419.025 448.867V441.81C419.134 440.538 418.835 439.264 418.17 438.175C417.812 437.776 417.362 437.471 416.86 437.285C416.358 437.098 415.818 437.037 415.286 437.106H413.257V453.572H407.276V415.293H407.169ZM415.286 431.759C415.774 431.8 416.265 431.735 416.726 431.569C417.187 431.403 417.606 431.14 417.957 430.797C418.672 429.93 419.017 428.816 418.918 427.696V424.702C419.021 423.648 418.757 422.59 418.17 421.708C417.9 421.381 417.555 421.123 417.165 420.956C416.775 420.788 416.351 420.717 415.927 420.746H413.15V431.759H415.286Z" fill="#007376"/>
<path d="M429.065 415.293H435.046V453.679H429.065V415.293Z" fill="#007376"/>
<path d="M448.077 454.213C446.862 454.293 445.645 454.115 444.504 453.691C443.363 453.267 442.324 452.607 441.455 451.754C439.849 449.725 439.05 447.174 439.212 444.59V424.382C439.05 421.798 439.849 419.246 441.455 417.218C443.265 415.565 445.627 414.648 448.077 414.648C450.527 414.648 452.889 415.565 454.699 417.218C456.194 418.822 456.942 421.281 456.942 424.382V427.696H451.281V423.954C451.281 421.388 450.213 420.212 448.184 420.212C446.154 420.212 445.086 421.495 445.086 423.954V444.911C445.086 447.37 446.154 448.653 448.184 448.653C450.213 448.653 451.281 447.37 451.281 444.911V437.426H448.291V431.973H456.942V444.483C457.104 447.067 456.305 449.619 454.699 451.647C453.852 452.537 452.82 453.228 451.675 453.672C450.53 454.116 449.301 454.3 448.077 454.213Z" fill="#007376"/>
<path d="M460.894 415.293H466.875V430.904H473.284V415.293H479.265V453.679H473.284V436.357H466.875V453.679H460.894V415.293Z" fill="#007376"/>
<path d="M488.451 420.746H482.149V415.293H500.627V420.746H494.326V453.679H488.344V420.746H488.451Z" fill="#007376"/>
<path d="M511.415 454.213C510.201 454.293 508.983 454.115 507.842 453.691C506.701 453.267 505.662 452.607 504.793 451.754C503.187 449.725 502.388 447.174 502.55 444.59V442.345H508.211V445.018C508.211 447.477 509.279 448.76 511.308 448.76C511.722 448.795 512.139 448.736 512.527 448.588C512.915 448.44 513.265 448.206 513.551 447.905C514.175 447.037 514.477 445.978 514.406 444.911C514.459 443.447 514.088 441.999 513.338 440.741C512.218 439.048 510.849 437.534 509.279 436.25C507.283 434.561 505.554 432.578 504.152 430.369C503.17 428.526 502.657 426.47 502.657 424.382C502.511 421.833 503.31 419.32 504.9 417.325C505.746 416.435 506.779 415.743 507.924 415.3C509.069 414.856 510.297 414.671 511.522 414.758C512.73 414.672 513.943 414.858 515.07 415.302C516.198 415.746 517.211 416.437 518.037 417.325C519.533 418.928 520.28 421.388 520.28 424.488V426.092H514.619V423.954C514.715 422.934 514.45 421.912 513.872 421.067C513.596 420.746 513.25 420.493 512.861 420.326C512.473 420.159 512.051 420.083 511.629 420.105C509.599 420.105 508.638 421.281 508.638 423.74C508.61 425.1 508.981 426.438 509.706 427.589C510.866 429.218 512.23 430.691 513.765 431.973C516.221 434.219 518.037 436.143 518.892 437.961C519.876 439.914 520.353 442.083 520.28 444.269C520.28 447.37 519.533 449.83 517.93 451.54C516.328 453.251 514.299 454.213 511.415 454.213Z" fill="#007376"/>
<path d="M523.805 447.798H529.573V453.572H523.805V447.798Z" fill="#007376"/>
<path d="M211.814 481.479H220.999C223.99 481.479 226.233 482.334 227.728 483.938C229.224 485.542 229.971 487.895 229.971 490.995V510.455C229.971 513.521 229.224 515.873 227.728 517.512C226.233 519.116 223.99 519.972 220.999 519.972H211.814V481.479ZM220.893 514.412C221.305 514.426 221.715 514.357 222.1 514.21C222.485 514.063 222.837 513.841 223.136 513.556C223.779 512.739 224.085 511.706 223.99 510.669V490.675C224.055 489.641 223.752 488.619 223.136 487.788C222.837 487.503 222.485 487.28 222.1 487.134C221.715 486.987 221.305 486.918 220.893 486.932H217.795V514.305H220.893V514.412Z" fill="#007376"/>
<path d="M233.923 481.479H239.905V519.865H233.923V481.479Z" fill="#007376"/>
<path d="M252.936 520.506C251.721 520.586 250.504 520.408 249.362 519.984C248.221 519.56 247.182 518.9 246.313 518.047C244.708 516.018 243.909 513.467 244.07 510.883V490.675C243.909 488.091 244.708 485.539 246.313 483.511C248.124 481.858 250.485 480.941 252.936 480.941C255.386 480.941 257.748 481.858 259.558 483.511C261.053 485.114 261.801 487.574 261.801 490.675V493.989H256.14V490.247C256.14 487.681 255.072 486.504 253.042 486.504C251.013 486.504 249.945 487.788 249.945 490.247V511.204C249.945 513.663 251.013 514.946 253.042 514.946C255.072 514.946 256.14 513.663 256.14 511.204V503.719H253.149V498.266H261.801V510.776C261.963 513.36 261.164 515.911 259.558 517.94C258.711 518.83 257.678 519.521 256.534 519.965C255.389 520.409 254.16 520.593 252.936 520.506Z" fill="#007376"/>
<path d="M265.753 481.479H273.23L279.104 504.468H279.211V481.479H284.551V519.865H278.356L271.2 491.851H271.093V519.865H265.753V481.479Z" fill="#007376"/>
<path d="M288.93 481.479H294.912V519.865H288.93V481.479Z" fill="#007376"/>
<path d="M299.398 481.479H315.206V486.932H305.379V497.625H313.069V503.078H305.379V519.758H299.398V481.479Z" fill="#007376"/>
<path d="M318.196 481.479H324.178V519.865H318.196V481.479Z" fill="#007376"/>
<path d="M328.664 481.479H345.006V486.932H334.645V497.09H342.869V502.543H334.645V514.305H345.006V519.758H328.664V481.479Z" fill="#007376"/>
<path d="M348.423 481.479H357.609C360.6 481.479 362.843 482.334 364.338 483.938C365.833 485.542 366.581 487.895 366.581 490.995V510.455C366.581 513.521 365.833 515.873 364.338 517.512C362.843 519.116 360.6 519.972 357.609 519.972H348.423V481.479ZM357.502 514.412C357.914 514.426 358.325 514.357 358.71 514.21C359.095 514.063 359.447 513.841 359.745 513.556C360.389 512.739 360.695 511.706 360.6 510.669V490.675C360.664 489.641 360.362 488.619 359.745 487.788C359.447 487.503 359.095 487.28 358.71 487.134C358.325 486.987 357.914 486.918 357.502 486.932H354.405V514.305H357.502V514.412Z" fill="#007376"/>
<path d="M379.292 481.479H385.273V514.412H395.099V519.865H379.292V481.479Z" fill="#007376"/>
<path d="M397.983 481.479H403.965V519.865H397.983V481.479Z" fill="#007376"/>
<path d="M406.955 481.479H413.043L416.995 511.311H417.102L421.054 481.479H426.608L420.84 519.865H412.937L406.955 481.479Z" fill="#007376"/>
<path d="M429.278 481.479H445.62V486.932H435.26V497.09H443.484V502.543H435.26V514.305H445.62V519.758H429.278V481.479Z" fill="#007376"/>
<path d="M457.049 520.506C455.834 520.586 454.617 520.408 453.476 519.984C452.335 519.56 451.296 518.9 450.427 518.047C448.821 516.018 448.022 513.466 448.184 510.883V508.638H453.845V511.311C453.845 513.77 454.913 515.053 456.942 515.053C457.356 515.088 457.773 515.029 458.161 514.881C458.549 514.733 458.899 514.499 459.185 514.198C459.809 513.33 460.111 512.271 460.04 511.204C460.093 509.74 459.722 508.292 458.972 507.034C457.852 505.341 456.483 503.827 454.913 502.543C452.917 500.854 451.188 498.871 449.786 496.662C448.804 494.819 448.291 492.763 448.291 490.674C448.145 488.126 448.944 485.613 450.534 483.618C451.38 482.728 452.413 482.036 453.558 481.593C454.703 481.149 455.931 480.964 457.156 481.051C458.364 480.965 459.577 481.151 460.704 481.595C461.831 482.039 462.845 482.73 463.671 483.618C465.166 485.221 465.914 487.681 465.914 490.781V492.385H460.253V490.247C460.349 489.227 460.084 488.205 459.506 487.36C459.23 487.039 458.884 486.786 458.495 486.619C458.107 486.452 457.685 486.376 457.263 486.398C455.233 486.398 454.272 487.574 454.272 490.033C454.244 491.393 454.615 492.731 455.34 493.882C456.5 495.511 457.864 496.984 459.399 498.266C461.855 500.511 463.671 502.436 464.526 504.254C465.509 506.207 465.987 508.376 465.914 510.562C465.914 513.663 465.166 516.122 463.564 517.833C461.962 519.544 459.933 520.506 457.049 520.506Z" fill="#007376"/>
<path d="M469.439 514.091H475.207V519.865H469.439V514.091Z" fill="#007376"/>
</svg>
