<svg width="70" height="69" viewBox="0 0 70 69" fill="none" xmlns="http://www.w3.org/2000/svg">
<mask id="mask0_1231_276" style="mask-type:luminance" maskUnits="userSpaceOnUse" x="18" y="9" width="52" height="35">
<path d="M18.6846 9.05762H69.2646V43.7032H18.6846V9.05762Z" fill="white"/>
</mask>
<g mask="url(#mask0_1231_276)">
<path d="M35.9784 43.6344H35.8565C35.4596 43.5995 35.0987 43.3917 34.8689 43.0662L18.9359 20.3844C18.7297 20.0901 18.6486 19.726 18.7109 19.3726C18.7727 19.0187 18.973 18.704 19.2673 18.4978C19.8795 18.0682 20.7243 18.2164 21.154 18.8292L36.2084 40.1994L66.9661 9.38825C67.5026 8.92853 68.3028 8.95969 68.8022 9.45914C69.3017 9.95912 69.3328 10.7588 68.8731 11.2952L36.9248 43.2832C36.6664 43.5184 36.327 43.6446 35.978 43.635L35.9784 43.6344Z" fill="#A3D1C6"/>
</g>
<path d="M2.8814 25.8759C2.43942 25.8969 2.01569 25.7003 1.7461 25.3496C1.47704 24.9995 1.3954 24.5392 1.5286 24.1177C3.2052 18.8106 6.14185 13.9874 10.0869 10.0615C14.032 6.13513 18.8687 3.22229 24.1845 1.57085C24.8976 1.34691 25.6576 1.74324 25.8821 2.45697C26.106 3.17016 25.7092 3.93009 24.996 4.15405C20.1072 5.68354 15.6606 8.3709 12.0339 11.9883C8.40725 15.6054 5.70804 20.0451 4.16617 24.9294C3.98948 25.4912 3.47016 25.8741 2.88155 25.8762L2.8814 25.8759Z" fill="#A3D1C6"/>
<mask id="mask1_1231_276" style="mask-type:luminance" maskUnits="userSpaceOnUse" x="0" y="28" width="70" height="41">
<path d="M0 28.1677H69.0042V69H0V28.1677Z" fill="white"/>
</mask>
<g mask="url(#mask1_1231_276)">
<path d="M34.4911 68.9823C27.8666 68.9769 21.3834 67.0656 15.8153 63.4759C10.2478 59.8864 5.83007 54.7706 3.09058 48.7392C0.351093 42.7077 -0.594654 36.0151 0.365666 29.4601C0.474148 28.7131 1.16747 28.1954 1.91455 28.3033C2.66158 28.4118 3.17929 29.1051 3.07081 29.8522C2.83774 31.3876 2.7153 32.938 2.70563 34.4916C2.70563 42.9215 6.05458 51.006 12.0153 56.9673C17.9764 62.9283 26.0606 66.2774 34.4911 66.2774C42.9215 66.2774 51.0055 62.9285 56.9668 56.9673C62.928 51.0067 66.2765 42.9221 66.2765 34.4916C66.2765 33.7446 66.8823 33.1389 67.6293 33.1389C68.3763 33.1389 68.9816 33.7446 68.9816 34.4916C68.9708 43.6359 65.334 52.4015 58.868 58.8673C52.4021 65.333 43.6349 68.9706 34.4909 68.9813L34.4911 68.9823Z" fill="#A3D1C6"/>
</g>
<path d="M48.9766 6.03311C48.7704 6.03418 48.5668 5.988 48.3815 5.89777C44.0562 3.78563 39.3039 2.69375 34.4902 2.70612C32.9376 2.70773 31.3872 2.82051 29.8513 3.04391C29.4925 3.09601 29.1273 3.00364 28.8373 2.78667C28.5468 2.56971 28.3545 2.24641 28.3025 1.88766C28.194 1.14064 28.7117 0.447259 29.4587 0.338785C31.1257 0.105176 32.8071 -0.00813833 34.4903 0.000454313C39.7163 -0.0129717 44.8751 1.1712 49.5722 3.46336C50.1404 3.73886 50.4428 4.37043 50.3005 4.98584C50.1581 5.60129 49.6088 6.03575 48.9772 6.03307L48.9766 6.03311Z" fill="#A3D1C6"/>
<path d="M2.8814 25.8759C2.43942 25.8969 2.01569 25.7003 1.7461 25.3496C1.47704 24.9995 1.3954 24.5392 1.5286 24.1177C3.2052 18.8106 6.14185 13.9874 10.0869 10.0615C14.032 6.13513 18.8687 3.22229 24.1845 1.57085C24.8976 1.34691 25.6576 1.74324 25.8821 2.45697C26.106 3.17016 25.7092 3.93009 24.996 4.15405C20.1072 5.68354 15.6606 8.3709 12.0339 11.9883C8.40725 15.6054 5.70804 20.0451 4.16617 24.9294C3.98948 25.4912 3.47016 25.8741 2.88155 25.8762L2.8814 25.8759Z" fill="#A3D1C6"/>
</svg>
