<svg width="69" height="69" viewBox="0 0 69 69" fill="none" xmlns="http://www.w3.org/2000/svg">
<path d="M68.8254 31.3282L53.4748 10.8452C53.3007 10.613 53.0289 10.475 52.7393 10.4744C52.4589 10.4157 52.1761 10.6057 51.9971 10.836L46.8413 17.5434C46.8352 17.5434 46.8297 17.5398 46.823 17.5398H26.9404C27.3063 16.5746 27.715 15.6333 28.1982 14.7377C29.1677 14.9765 30.1494 15.1238 31.131 15.1238C35.7712 15.1238 40.2904 12.5538 42.3288 8.40116C44.8743 3.21784 45.892 2.31863 45.883 2.31863C46.175 2.12743 46.3289 1.78351 46.2764 1.43837C46.222 1.09323 45.9734 0.810398 45.6386 0.715708C45.3039 0.621022 37.365 -1.57499 31.8641 2.45062C28.8226 4.67658 27.1781 8.34314 26.9515 13.3315C26.5116 14.0981 26.1048 14.8867 25.7462 15.7047C25.6155 15.5538 25.4811 15.3968 25.3443 15.2362C26.4835 10.538 24.219 5.38827 19.9655 3.30884C15.7541 1.24771 14.952 0.400424 14.9429 0.400424C14.7505 0.109645 14.4145 -0.0418425 14.062 0.0100767C13.7181 0.0632219 13.4353 0.313068 13.3406 0.647822C13.2612 0.930657 11.4224 7.62517 14.8305 12.2673C16.7107 14.8293 19.806 16.1995 23.9869 16.3944C24.3394 16.8085 24.6753 17.1946 24.9869 17.5403L5.63759 17.5397C5.2057 17.5397 4.83246 17.8372 4.73472 18.2581L0.0236808 38.6865C-0.0398499 38.9626 0.026125 39.2497 0.201442 39.4714C0.376763 39.6932 0.64371 39.8221 0.926544 39.8221H1.48061V68.0727C1.48061 68.584 1.89599 69 2.4073 69H62.546C63.0573 69 63.4733 68.584 63.4733 68.0727L63.4739 32.8834L64.7995 34.6641C64.9553 34.8724 65.1887 35.0056 65.4464 35.0331C65.7 35.0593 65.9602 34.9787 66.1544 34.8076L68.6925 32.5817C69.0572 32.2622 69.114 31.7161 68.8245 31.3288L68.8254 31.3282ZM32.9104 3.89548C36.4486 1.30046 41.4022 1.73052 43.7778 2.13977C43.1083 3.10922 42.1217 4.77201 40.7258 7.61506C38.6977 11.7476 33.7815 14.0146 29.1663 13.1288C31.2842 9.87464 34.1889 7.19486 37.7075 5.3561C38.1443 5.12764 38.3116 4.58947 38.0832 4.15269C37.8571 3.71408 37.3183 3.54609 36.8797 3.77516C33.845 5.36104 31.2371 7.53086 29.1413 10.1276C29.7595 7.37135 31.0191 5.28166 32.9104 3.89548ZM23.8469 13.4342C21.4896 10.535 19.0119 7.26679 18.9764 7.21988C18.6801 6.82709 18.1211 6.75012 17.7265 7.047C17.3337 7.34448 17.2568 7.90466 17.5536 8.29684C17.6978 8.48681 20.0484 11.5864 22.3538 14.4275C19.6274 14.0134 17.5572 12.9663 16.2708 11.2175C14.211 8.41788 14.4596 4.5241 14.7797 2.49112C15.6257 3.05189 16.988 3.83748 19.1811 4.90958C22.2873 6.42944 24.1114 9.94251 23.8469 13.4342ZM40.8207 67.144H3.33258V39.8223H40.8192L40.8207 67.144ZM40.8207 37.9661H2.09089L6.37501 19.3924H45.4192L35.4792 32.3234C35.3289 32.5177 35.2629 32.7645 35.2947 33.0076C35.3265 33.252 35.4541 33.4725 35.649 33.6228L38.3167 35.6722C38.4865 35.8011 38.6857 35.8646 38.8824 35.8646C39.1603 35.8646 39.4346 35.74 39.6179 35.503L40.8213 33.9373L40.8207 37.9661ZM56.875 67.144H47.751V53.9229C47.751 51.4073 49.7962 49.3622 52.3118 49.3622C54.8274 49.3622 56.875 51.4073 56.875 53.9229V67.144ZM61.6191 67.144H58.7296V53.9229C58.7296 50.3848 55.8493 47.507 52.3112 47.507C48.773 47.507 45.8952 50.3848 45.8952 53.9229V67.144H42.6759V31.5246L52.7278 18.4507L61.6189 30.3913L61.6191 67.144ZM65.6893 32.7507L53.4834 16.3617C53.3093 16.129 53.0356 15.9909 52.7461 15.9885C52.459 15.9182 52.1829 16.1198 52.0039 16.3501L38.7126 33.6383L37.5134 32.7177L52.7236 12.9337L66.8274 31.7528L65.6893 32.7507Z" fill="#A3D1C6"/>
<path d="M45.8174 36.0243C45.8174 39.6058 48.7313 42.5197 52.3128 42.5197C55.8942 42.5197 58.81 39.6058 58.81 36.0243C58.81 32.4416 55.8938 29.5277 52.3128 29.5277C48.7313 29.5277 45.8174 32.4416 45.8174 36.0243ZM56.9555 36.0243C56.9555 38.5832 54.8742 40.6645 52.3128 40.6645C49.7539 40.6645 47.6726 38.5832 47.6726 36.0243C47.6726 33.4648 49.7539 31.3812 52.3128 31.3812C54.8735 31.3812 56.9555 33.4642 56.9555 36.0243Z" fill="#A3D1C6"/>
<path d="M8.26459 59.1786H18.6763C19.1876 59.1786 19.603 58.7626 19.603 58.2513V47.8421C19.603 47.3308 19.1876 46.9148 18.6763 46.9148L8.26459 46.9142C7.75329 46.9142 7.33789 47.3302 7.33789 47.8415V58.2507C7.3385 58.762 7.75328 59.1786 8.26459 59.1786ZM9.19128 48.7694H17.7497V52.1176H9.19128V48.7694ZM9.19128 53.9727H17.7497V57.3234H9.19128V53.9727Z" fill="#A3D1C6"/>
<path d="M25.0071 59.1785H35.4188C35.9301 59.1785 36.3455 58.7624 36.3455 58.2512V47.842C36.3455 47.3307 35.9301 46.9147 35.4188 46.9147H25.0071C24.4958 46.9147 24.0811 47.3307 24.0811 47.842V58.2512C24.0811 58.7618 24.4958 59.1785 25.0071 59.1785ZM25.9338 48.7693H34.4922V52.1174H25.9338V48.7693ZM25.9338 53.9726H34.4922V57.3233H25.9338V53.9726Z" fill="#A3D1C6"/>
</svg>
