<svg width="92" height="69" viewBox="0 0 92 69" fill="none" xmlns="http://www.w3.org/2000/svg">
<path d="M91.2582 35.2119C89.9512 33.0859 87.1643 32.4103 85.009 33.7034L84.2621 34.1776C84.2187 33.3873 83.946 32.6118 83.4718 31.9795C82.1501 30.227 79.7227 29.8388 77.9407 31.0885L61.3344 42.4806C59.0071 42.6534 55.0713 42.8541 51.9823 42.4953C48.2046 42.0499 41.9406 39.0189 39.4272 37.7258C37.9907 36.9929 36.5257 36.5188 35.0745 36.3181C27.2307 35.2264 18.5403 39.6077 14.0442 42.3225C10.8554 44.2477 0.641508 49.8501 0.540826 49.9075C0.296762 50.0509 0.110042 50.2809 0.0380024 50.5537C-0.0340387 50.8271 -0.0053705 51.1138 0.138714 51.3586L10.3238 68.4824C10.5252 68.8125 10.8699 69 11.2287 69C11.372 69 11.5301 68.9713 11.6595 68.8993L24.0565 63.2682C30.2051 60.352 39.3272 64.748 41.9847 66.1697C43.0624 66.7446 43.924 67.118 44.8002 67.3768C53.1468 69.8622 60.1716 63.9864 60.4157 63.7711L90.1234 41.2033C92.0061 39.7948 92.4801 37.2086 91.2592 35.2121L91.2582 35.2119ZM79.1478 32.8271C80.0101 32.2236 81.1731 32.4103 81.8052 33.2439C82.1213 33.6747 82.2507 34.2062 82.1647 34.7377C82.0787 35.2692 81.7765 35.7286 81.3171 36.0161L80.4261 36.6196L79.3345 37.3092C79.2771 37.3525 79.2338 37.4099 79.1764 37.4525L68.1438 44.8794C67.2528 43.8451 66.0464 43.1269 64.6961 42.7388L79.1478 32.8271ZM88.8588 39.5357L59.0946 62.1318C59.0372 62.1891 52.6299 67.5187 45.3898 65.3641C44.6569 65.1487 43.91 64.8179 42.9618 64.3151C40.0888 62.778 30.1906 58.0373 23.166 61.3554L11.6452 66.5843L2.49443 51.2129C5.13794 49.7618 12.4354 45.7253 15.1216 44.1161C19.3736 41.5446 27.5907 37.4075 34.7743 38.3983C35.9954 38.571 37.2451 38.9731 38.4661 39.6054C41.7124 41.2572 47.7602 44.1161 51.7254 44.5901C55.015 44.9783 59.095 44.7916 61.9391 44.5468C63.7636 44.4034 65.4874 45.0496 66.5358 46.2853C67.2401 47.1043 67.5128 47.9232 67.3981 48.7994C67.2114 50.1931 65.8757 51.2701 64.3238 51.2701L42.1286 51.2709C41.5538 51.2709 41.0796 51.745 41.0796 52.3199C41.0796 52.8947 41.5538 53.3689 42.1286 53.3689H64.337C66.9519 53.3689 69.1786 51.5156 69.4938 49.0589C69.6085 48.2547 69.4791 47.4498 69.1924 46.6742L81.6041 38.3276L86.1148 35.4688C87.2638 34.7792 88.7583 35.1387 89.4618 36.2877C90.1234 37.3801 89.8646 38.7731 88.859 39.5347L88.8588 39.5357Z" fill="#A3D1C6"/>
<path d="M50.7485 34.493C51.5241 35.2686 52.5444 35.6567 53.5501 35.6567C54.5697 35.6567 55.5754 35.2686 56.3517 34.493L69.7117 21.133C74.5098 16.3349 74.7686 8.57792 70.3005 3.83721C68.0165 1.40918 64.9275 0.0447998 61.6092 0.00132782C58.6495 -0.0420444 55.7914 0.978301 53.5501 2.88892C51.2948 0.978414 48.4932 -0.041956 45.491 0.00132782C42.1727 0.0447001 39.0837 1.40909 36.7996 3.83721C32.3324 8.57792 32.5904 16.3496 37.3885 21.133L50.7485 34.493ZM38.3368 5.27273C40.2334 3.26135 42.7755 2.14105 45.5336 2.09777H45.6916C48.3777 2.09777 50.9066 3.14678 52.8171 5.05744C53.2052 5.44558 53.9087 5.44558 54.3108 5.05744C56.2502 3.11814 58.8788 2.08384 61.5944 2.09777C64.3378 2.14114 66.8953 3.26146 68.7912 5.27273C72.4829 9.19462 72.2388 15.6445 68.245 19.6384L54.885 32.9984C54.1521 33.7167 52.9745 33.7167 52.2561 32.9984L38.8961 19.6384C34.889 15.6445 34.645 9.19462 38.3368 5.27273Z" fill="#A3D1C6"/>
</svg>
