<svg width="69" height="69" viewBox="0 0 69 69" fill="none" xmlns="http://www.w3.org/2000/svg">
<path d="M68.8694 2.10431C68.7546 1.93157 68.5672 1.81678 68.3659 1.79504L53.4569 0.0057728C53.1765 -0.0304477 52.9032 0.106073 52.7593 0.350702C52.6082 0.588088 52.6155 0.896785 52.7811 1.12692L56.003 5.84838L48.725 10.8072C46.287 8.35647 43.1442 6.56007 39.5192 5.78376C32.6331 4.30875 25.7653 6.85086 21.4597 11.9718C19.3886 11.6341 17.288 11.6559 15.2026 12.0292C5.16257 13.8547 -1.52648 23.4998 0.300742 33.5324C1.67417 41.0929 7.4997 46.756 14.5916 48.301V54.6402H9.26968C8.86708 54.6402 8.55034 54.9561 8.55034 55.359V61.7482C8.55034 62.1505 8.86651 62.467 9.26968 62.467H14.5916V68.2812C14.5916 68.6762 14.9078 69 15.3109 69H21.7046C22.1073 69 22.424 68.6763 22.424 68.2812V62.467H27.7605C28.1558 62.467 28.4798 62.1511 28.4798 61.7482V55.359C28.4798 54.9567 28.1564 54.6402 27.7605 54.6402H22.424V48.301C26.4584 47.4245 30.0545 45.2179 32.6653 42.1203C32.7372 42.1921 34.545 42.3721 35.6715 42.3721C44.2516 42.3721 51.8824 36.3998 53.731 27.7533C54.4648 24.3396 54.1983 20.9328 53.1343 17.8496L60.6785 12.7113L63.9077 17.4333C64.066 17.6629 64.3465 17.7855 64.6197 17.7354C64.9002 17.6852 65.1233 17.4835 65.1952 17.211L68.9781 2.68629C69.0283 2.48457 68.9921 2.27617 68.8699 2.10399L68.8694 2.10431ZM27.0404 56.0777V61.0292H21.7039C21.3085 61.0292 20.9845 61.3524 20.9845 61.7481V67.5622H16.0295V61.7481C16.0295 61.353 15.7061 61.0292 15.3101 61.0292H9.98822V56.0777H15.3101C15.7055 56.0777 16.0295 55.7539 16.0295 55.3588V48.5674C17.651 48.7474 19.0016 48.8148 20.9845 48.5601V55.3589C20.9845 55.754 21.308 56.0777 21.7039 56.0777L27.0404 56.0777ZM16.9574 47.2233C9.5136 46.5407 3.11276 40.9779 1.71722 33.2737C0.897508 28.789 1.88284 24.261 4.47918 20.517C7.07554 16.7724 10.9738 14.257 15.4616 13.4452C17.1228 13.1432 18.7984 13.093 20.4529 13.2797C19.626 14.4655 18.9423 15.7376 18.4176 17.0956C17.6553 17.0956 16.9076 17.1675 16.1593 17.304C9.03224 18.5979 4.28518 25.4468 5.58008 32.5762C6.86206 39.6286 13.6488 44.4586 20.8559 43.1479C28.0281 41.8334 32.7283 35.0013 31.4424 27.8828C30.7448 24.0452 28.4362 20.7821 25.0631 18.8563C25.6241 17.6633 26.3936 16.5783 27.336 15.6367C31.536 18.1665 34.4273 22.3563 35.3044 27.1791C37.2973 38.1487 28.3374 48.1987 16.958 47.223L16.9574 47.2233ZM25.6814 39.4617C18.855 44.7939 8.56401 41.0069 6.9966 32.318C5.83897 25.9718 10.0675 19.87 16.4182 18.7206C16.9145 18.6342 17.418 18.5768 17.9215 18.5551C17.7704 19.022 17.6483 19.5035 17.5474 19.9849C15.9074 27.6178 19.1583 35.3141 25.6813 39.4624L25.6814 39.4617ZM24.5232 20.201C27.4289 21.9401 29.4208 24.7865 30.0252 28.1427C30.3849 30.1047 30.2338 32.074 29.6227 33.8993C25.0373 31.1566 22.7823 25.518 24.5232 20.201ZM36.7206 26.9284C35.7927 21.847 32.8083 17.4132 28.4644 14.6388C31.1728 12.5352 34.6417 11.7016 38.0946 12.4327C44.3779 13.78 48.4295 19.9786 47.0846 26.325C45.9554 31.5429 41.4749 35.2725 36.2322 35.5461C37.0731 32.7644 37.2388 29.8033 36.7207 26.9286L36.7206 26.9284ZM52.3276 27.4528C50.4719 36.0916 42.3668 41.8405 33.6643 40.8207C34.4912 39.6422 35.1889 38.3628 35.7213 37.0042C41.8629 36.968 47.1927 32.6779 48.487 26.6264C49.9999 19.5558 45.5104 12.5542 38.3968 11.0304C34.9663 10.2971 31.4566 10.9368 28.5007 12.8486C20.3003 18.1451 20.5751 30.349 29.0761 35.2505C28.5224 36.429 27.7529 37.5218 26.8032 38.4774C15.962 31.9199 15.842 16.3437 26.3644 9.54352C30.1976 7.0711 34.7572 6.23745 39.2165 7.19306C48.4742 9.17848 54.291 18.3187 52.3273 27.4523L52.3276 27.4528ZM64.2017 15.314L61.4616 11.3037C61.354 11.1454 61.1883 11.0379 61.0015 11.0017C60.8147 10.966 60.6201 11.0089 60.4623 11.117L52.5943 16.4787C51.8605 14.8114 50.8897 13.2591 49.7103 11.8793L57.4054 6.63307C57.7361 6.41018 57.8153 5.96495 57.5922 5.63396L54.8593 1.62362L67.3734 3.1253L64.2017 15.314Z" fill="#A3D1C6"/>
</svg>
