<svg width="70" height="69" viewBox="0 0 70 69" fill="none" xmlns="http://www.w3.org/2000/svg">
<path d="M68.604 30.0133H67.1783L58.1584 4.43711L68.8187 1.69871C69.2801 1.57968 69.5583 1.11024 69.4393 0.648151C69.3202 0.186735 68.8521 -0.0894505 68.3887 0.027577L35.8293 8.39121V0.862657C35.8293 0.386535 35.4435 0 34.9667 0C34.4898 0 34.104 0.385851 34.104 0.862657V8.83443L1.11489 17.3092C0.653475 17.4282 0.375285 17.8976 0.494316 18.3597C0.594625 18.7489 0.945035 19.0077 1.32889 19.0077C1.40044 19.0077 1.47199 18.999 1.54421 18.9803L11.64 16.3871L2.75593 41.5815H1.33021C0.853396 41.5815 0.467541 41.9674 0.467541 42.4442V50.9711C0.467541 51.4473 0.853396 51.8338 1.33021 51.8338H24.2788C24.7556 51.8338 25.1414 51.448 25.1414 50.9711V42.4442C25.1414 41.9681 24.7556 41.5815 24.2788 41.5815H22.853L13.7745 15.8393L34.1055 10.6165V59.1189H18.2967C16.33 59.1189 14.7304 60.7185 14.7304 62.6852V68.1373C14.7304 68.6135 15.1163 69 15.5931 69H54.3428C54.8196 69 55.2055 68.6141 55.2055 68.1373V62.6859C55.2055 60.7192 53.6059 59.1196 51.6392 59.1196L35.8298 59.1189V10.1731L55.8954 5.01868L47.0803 30.0146H45.6546C45.1778 30.0146 44.7919 30.4004 44.7919 30.8772V39.4042C44.7919 39.8803 45.1778 40.2668 45.6546 40.2668H68.6031C69.0799 40.2668 69.4658 39.881 69.4658 39.4042V30.8772C69.4658 30.4011 69.0799 30.0146 68.6031 30.0146L68.604 30.0133ZM23.4157 50.108H2.19102V43.3065H23.4139L23.4157 50.108ZM4.58431 41.581L12.8037 18.2748L21.0231 41.581H4.58431ZM53.479 62.6857V67.2745H16.4549V62.685C16.4549 61.6699 17.2815 60.8433 18.2959 60.8433H51.6394C52.6539 60.844 53.4804 61.6698 53.4804 62.6857H53.479ZM57.1289 6.7073L65.3483 30.0135H48.9097L57.1289 6.7073ZM67.7409 38.5406H46.5179V31.7391H67.7409V38.5406Z" fill="#A3D1C6"/>
</svg>
